<?xml version="1.0" encoding="UTF-8"?>
<!DOCTYPE svg PUBLIC "-//W3C//DTD SVG 1.1//EN" "http://www.w3.org/Graphics/SVG/1.1/DTD/svg11.dtd">
<svg xmlns="http://www.w3.org/2000/svg" version="1.1" width="2944px" height="1024px" style="shape-rendering:geometricPrecision; text-rendering:geometricPrecision; image-rendering:optimizeQuality; fill-rule:evenodd; clip-rule:evenodd" xmlns:xlink="http://www.w3.org/1999/xlink">
<g><path style="opacity:0.991" fill="#f6e245" d="M 756.5,111.5 C 756.256,114.263 754.923,116.429 752.5,118C 709.58,152.279 666.914,186.779 624.5,221.5C 619.167,221.5 613.833,221.5 608.5,221.5C 608.167,221.5 607.833,221.5 607.5,221.5C 613.096,214.73 618.929,208.064 625,201.5C 660.404,164.932 695.571,128.265 730.5,91.5C 732.074,90.3691 733.741,90.2025 735.5,91C 742.422,98.0907 749.422,104.924 756.5,111.5 Z"/></g>
<g><path style="opacity:0.996" fill="#428eda" d="M 824.5,117.5 C 825.028,118.847 825.195,120.181 825,121.5C 765.884,154.973 706.717,188.307 647.5,221.5C 643.298,221.817 639.298,221.483 635.5,220.5C 679.258,189.11 723.258,157.943 767.5,127C 768.823,126.184 769.489,125.017 769.5,123.5C 782.405,114.13 795.572,105.13 809,96.5C 810.979,98.395 812.979,100.395 815,102.5C 817.996,107.651 821.162,112.651 824.5,117.5 Z"/></g>
<g><path style="opacity:1" fill="#a39731" d="M 756.5,111.5 C 760.833,115.5 765.167,119.5 769.5,123.5C 769.489,125.017 768.823,126.184 767.5,127C 723.258,157.943 679.258,189.11 635.5,220.5C 635.167,220.5 634.833,220.5 634.5,220.5C 631.272,221.414 627.939,221.747 624.5,221.5C 666.914,186.779 709.58,152.279 752.5,118C 754.923,116.429 756.256,114.263 756.5,111.5 Z"/></g>
<g><path style="opacity:1" fill="#94d405" d="M 895.5,150.5 C 828.665,172.121 761.665,192.954 694.5,213C 690.736,213.852 687.403,215.352 684.5,217.5C 679.863,218.925 675.196,220.258 670.5,221.5C 665.637,221.819 660.97,221.486 656.5,220.5C 715.593,192.123 774.927,163.956 834.5,136C 835.756,135.583 836.423,134.75 836.5,133.5C 850.098,127.463 863.598,121.129 877,114.5C 877.772,114.645 878.439,114.978 879,115.5C 885.058,126.947 890.558,138.613 895.5,150.5 Z"/></g>
<g><path style="opacity:1" fill="#2b5f92" d="M 824.5,117.5 C 828.5,122.833 832.5,128.167 836.5,133.5C 836.423,134.75 835.756,135.583 834.5,136C 774.927,163.956 715.593,192.123 656.5,220.5C 656.167,220.5 655.833,220.5 655.5,220.5C 652.946,221.388 650.279,221.721 647.5,221.5C 706.717,188.307 765.884,154.973 825,121.5C 825.195,120.181 825.028,118.847 824.5,117.5 Z"/></g>
<g><path style="opacity:0.998" fill="#6a9401" d="M 895.5,150.5 C 897.394,155.115 899.727,159.448 902.5,163.5C 902.389,164.117 902.056,164.617 901.5,165C 829.237,182.905 756.904,200.405 684.5,217.5C 687.403,215.352 690.736,213.852 694.5,213C 761.665,192.954 828.665,172.121 895.5,150.5 Z"/></g>
<g><path style="opacity:1" fill="#fd4f57" d="M 969.5,209.5 C 891.999,213.095 814.665,217.095 737.5,221.5C 715.167,221.5 692.833,221.5 670.5,221.5C 675.196,220.258 679.863,218.925 684.5,217.5C 756.904,200.405 829.237,182.905 901.5,165C 902.056,164.617 902.389,164.117 902.5,163.5C 919.979,158.837 937.646,155.004 955.5,152C 956.329,153.816 957.163,155.649 958,157.5C 961.858,174.921 965.691,192.254 969.5,209.5 Z"/></g>
<g><path style="opacity:1" fill="#b2363d" d="M 969.5,209.5 C 971.281,213.2 972.281,217.2 972.5,221.5C 894.167,221.5 815.833,221.5 737.5,221.5C 814.665,217.095 891.999,213.095 969.5,209.5 Z"/></g>
<g><path style="opacity:0.986" fill="#3c3b3b" d="M 634.5,220.5 C 634.833,220.5 635.167,220.5 635.5,220.5C 639.298,221.483 643.298,221.817 647.5,221.5C 650.279,221.721 652.946,221.388 655.5,220.5C 657.571,221.809 660.071,222.475 663,222.5C 665.69,222.497 668.19,222.164 670.5,221.5C 692.833,221.5 715.167,221.5 737.5,221.5C 815.833,221.5 894.167,221.5 972.5,221.5C 992.5,221.5 1012.5,221.5 1032.5,221.5C 1032.5,272.833 1032.5,324.167 1032.5,375.5C 1031.51,383.984 1031.17,392.651 1031.5,401.5C 1031.5,405.5 1031.5,409.5 1031.5,413.5C 1031.5,418.5 1031.5,423.5 1031.5,428.5C 1031.24,432.269 1031.58,435.936 1032.5,439.5C 1031.51,445.645 1031.18,451.978 1031.5,458.5C 1031.5,461.5 1031.5,464.5 1031.5,467.5C 1031.5,482.833 1031.5,498.167 1031.5,513.5C 1031.17,589.904 1031.5,666.238 1032.5,742.5C 1032.5,765.833 1032.5,789.167 1032.5,812.5C 975.5,812.5 918.5,812.5 861.5,812.5C 851.833,812.5 842.167,812.5 832.5,812.5C 827.737,812.226 823.07,812.559 818.5,813.5C 812.355,812.51 806.022,812.177 799.5,812.5C 795.5,812.5 791.5,812.5 787.5,812.5C 771.167,811.167 754.833,811.167 738.5,812.5C 738.167,812.5 737.833,812.5 737.5,812.5C 661.167,812.5 584.833,812.5 508.5,812.5C 486.167,812.5 463.833,812.5 441.5,812.5C 441.5,751.5 441.5,690.5 441.5,629.5C 441.5,629.167 441.5,628.833 441.5,628.5C 442.494,619.014 442.827,609.348 442.5,599.5C 442.666,590.494 442.5,581.494 442,572.5C 440.961,571.756 440.461,570.756 440.5,569.5C 441.117,569.611 441.617,569.944 442,570.5C 442.5,558.505 442.667,546.505 442.5,534.5C 442.833,448.665 442.499,362.998 441.5,277.5C 441.5,258.833 441.5,240.167 441.5,221.5C 496.833,221.5 552.167,221.5 607.5,221.5C 607.833,221.5 608.167,221.5 608.5,221.5C 612.653,222.166 616.987,222.499 621.5,222.5C 626.222,222.492 630.555,221.825 634.5,220.5 Z"/></g>
<g><path style="opacity:0.999" fill="#716c3e" d="M 634.5,220.5 C 630.555,221.825 626.222,222.492 621.5,222.5C 616.987,222.499 612.653,222.166 608.5,221.5C 613.833,221.5 619.167,221.5 624.5,221.5C 627.939,221.747 631.272,221.414 634.5,220.5 Z"/></g>
<g><path style="opacity:1" fill="#576c2c" d="M 655.5,220.5 C 655.833,220.5 656.167,220.5 656.5,220.5C 660.97,221.486 665.637,221.819 670.5,221.5C 668.19,222.164 665.69,222.497 663,222.5C 660.071,222.475 657.571,221.809 655.5,220.5 Z"/></g>
<g><path style="opacity:1" fill="#444444" d="M 455.5,237.5 C 642.833,237.5 830.167,237.5 1017.5,237.5C 1017.67,423.834 1017.5,610.167 1017,796.5C 923.57,797.166 830.07,797.499 736.5,797.5C 642.93,797.499 549.43,797.166 456,796.5C 455.5,610.167 455.333,423.834 455.5,237.5 Z"/></g>
<g><path style="opacity:1" fill="#8c383d" d="M 441.5,277.5 C 442.499,362.998 442.833,448.665 442.5,534.5C 441.326,533.486 440.66,532.153 440.5,530.5C 441.494,520.013 441.828,509.346 441.5,498.5C 441.5,424.833 441.5,351.167 441.5,277.5 Z"/></g>
<g><path style="opacity:1" fill="#b0363c" d="M 441.5,277.5 C 441.5,351.167 441.5,424.833 441.5,498.5C 436.422,425.71 432.422,352.71 429.5,279.5C 433.476,278.705 437.476,278.038 441.5,277.5 Z"/></g>
<g><path style="opacity:1" fill="#fd4e57" d="M 429.5,279.5 C 432.422,352.71 436.422,425.71 441.5,498.5C 441.828,509.346 441.494,520.013 440.5,530.5C 426.957,474.115 413.291,417.782 399.5,361.5C 399.277,357.838 398.277,354.505 396.5,351.5C 396.606,348.921 395.939,346.588 394.5,344.5C 392.065,335.836 389.565,327.169 387,318.5C 385.579,309.374 383.913,300.374 382,291.5C 397.568,286.833 413.402,282.833 429.5,279.5 Z"/></g>
<g><path style="opacity:1" fill="#fefefe" d="M 926.5,326.5 C 927.135,333.788 926.968,341.122 926,348.5C 903.844,457.727 882.01,567.06 860.5,676.5C 859.5,676.5 858.5,676.5 857.5,676.5C 809.428,657.302 761.428,637.802 713.5,618C 708.992,616.049 704.326,615.382 699.5,616C 698.299,616.903 697.465,618.069 697,619.5C 696.333,648.167 696.333,676.833 697,705.5C 697.804,708.146 699.304,710.146 701.5,711.5C 696.27,712.926 691.77,711.593 688,707.5C 687.333,675.5 687.333,643.5 688,611.5C 720.044,573.627 751.878,535.627 783.5,497.5C 798.652,479.181 813.985,461.014 829.5,443C 811.772,456.539 794.105,470.372 776.5,484.5C 765.049,492.403 753.715,500.569 742.5,509C 709.319,534.425 676.319,560.092 643.5,586C 642.271,586.781 640.938,587.281 639.5,587.5C 610.293,576.154 581.293,564.321 552.5,552C 546.947,548.081 544.947,542.915 546.5,536.5C 547.29,535.206 548.29,534.039 549.5,533C 671.33,463.586 792.996,393.92 914.5,324C 917.5,323.333 920.5,323.333 923.5,324C 924.942,324.377 925.942,325.21 926.5,326.5 Z"/></g>
<g><path style="opacity:1" fill="#dbdbdb" d="M 926.5,326.5 C 930.793,328.474 932.46,331.807 931.5,336.5C 912.269,447.32 893.602,558.32 875.5,669.5C 874.239,672.258 873.406,675.258 873,678.5C 867.359,681.432 862.193,680.766 857.5,676.5C 858.5,676.5 859.5,676.5 860.5,676.5C 882.01,567.06 903.844,457.727 926,348.5C 926.968,341.122 927.135,333.788 926.5,326.5 Z"/></g>
<g><path style="opacity:1" fill="#2f2f2f" d="M 861.5,683.5 C 871.746,684.588 876.412,679.921 875.5,669.5C 893.602,558.32 912.269,447.32 931.5,336.5C 933.541,334.065 935.874,333.898 938.5,336C 941.552,338.199 943.552,341.032 944.5,344.5C 925.456,458.727 905.956,572.727 886,686.5C 881.975,689.393 877.475,690.226 872.5,689C 868.504,687.669 864.837,685.835 861.5,683.5 Z"/></g>
<g><path style="opacity:0.997" fill="#6b9203" d="M 394.5,344.5 C 395.939,346.588 396.606,348.921 396.5,351.5C 396.723,355.162 397.723,358.495 399.5,361.5C 413.291,417.782 426.957,474.115 440.5,530.5C 440.66,532.153 441.326,533.486 442.5,534.5C 442.667,546.505 442.5,558.505 442,570.5C 441.617,569.944 441.117,569.611 440.5,569.5C 440.5,569.167 440.5,568.833 440.5,568.5C 441.658,559.343 441.824,550.009 441,540.5C 421.019,477.616 401.185,414.616 381.5,351.5C 385.577,348.773 389.91,346.439 394.5,344.5 Z"/></g>
<g><path style="opacity:1" fill="#95d402" d="M 381.5,351.5 C 401.185,414.616 421.019,477.616 441,540.5C 441.824,550.009 441.658,559.343 440.5,568.5C 415.792,516.082 390.792,463.748 365.5,411.5C 365.043,410.702 364.376,410.369 363.5,410.5C 357.445,396.816 351.111,383.316 344.5,370C 344.759,368.739 345.426,367.739 346.5,367C 357.961,361.347 369.627,356.181 381.5,351.5 Z"/></g>
<g><path style="opacity:1" fill="#a77626" d="M 396.5,351.5 C 398.277,354.505 399.277,357.838 399.5,361.5C 397.723,358.495 396.723,355.162 396.5,351.5 Z"/></g>
<g><path style="opacity:0.995" fill="#1f1f1f" d="M 1611.5,598.5 C 1612.31,604.766 1613.64,610.932 1615.5,617C 1615.33,617.833 1615.17,618.667 1615,619.5C 1612.83,620.488 1611,621.821 1609.5,623.5C 1608.17,623.833 1606.83,624.167 1605.5,624.5C 1588.77,630.109 1571.77,630.943 1554.5,627C 1549.95,611.972 1545.78,596.805 1542,581.5C 1521.43,583.148 1500.76,585.482 1480,588.5C 1479.17,588.833 1478.33,589.167 1477.5,589.5C 1475.96,593.45 1474.63,597.45 1473.5,601.5C 1470,613.181 1466,624.681 1461.5,636C 1460.21,636.49 1458.87,636.657 1457.5,636.5C 1446.45,636.879 1435.45,636.379 1424.5,635C 1416.31,633.419 1409.65,629.585 1404.5,623.5C 1433.46,542.58 1462.13,461.58 1490.5,380.5C 1491.84,376.296 1493.84,372.463 1496.5,369C 1513.3,359.278 1530.13,359.111 1547,368.5C 1568.24,445.366 1589.74,522.033 1611.5,598.5 Z M 1509.5,478.5 C 1513.37,496.367 1517.04,514.367 1520.5,532.5C 1510.56,534.159 1500.56,535.326 1490.5,536C 1496.93,516.767 1503.26,497.6 1509.5,478.5 Z"/></g>
<g><path style="opacity:0.994" fill="#1f1f1f" d="M 2665.5,442.5 C 2664.19,443.476 2662.85,444.476 2661.5,445.5C 2638.5,432.825 2614.17,428.659 2588.5,433C 2575.76,438.573 2566.1,447.406 2559.5,459.5C 2542.44,489.237 2541.27,519.57 2556,550.5C 2563.08,564.126 2574.25,571.959 2589.5,574C 2599.88,574.274 2610.21,573.608 2620.5,572C 2633.37,569.826 2646.04,567.16 2658.5,564C 2667.62,580.597 2668.79,597.764 2662,615.5C 2660.06,617.221 2657.89,618.554 2655.5,619.5C 2639.69,626.159 2623.36,631.325 2606.5,635C 2576.39,638.295 2549.39,630.629 2525.5,612C 2506.22,593.275 2495.06,570.441 2492,543.5C 2488.15,508.031 2491.81,473.365 2503,439.5C 2505.98,431.543 2509.48,423.876 2513.5,416.5C 2524.06,396.129 2540.39,382.295 2562.5,375C 2571.9,371.566 2581.57,369.233 2591.5,368C 2607.19,367.283 2622.85,367.617 2638.5,369C 2655.44,371.215 2668.61,379.382 2678,393.5C 2682.72,412.284 2678.55,428.617 2665.5,442.5 Z"/></g>
<g><path style="opacity:0.995" fill="#1f1f1f" d="M 1427.5,512.5 C 1415.53,524.601 1401.19,532.768 1384.5,537C 1357.75,543.941 1330.75,549.441 1303.5,553.5C 1302.84,557.466 1302.5,561.466 1302.5,565.5C 1300.76,586.571 1298.43,607.571 1295.5,628.5C 1293.27,629.577 1290.94,630.244 1288.5,630.5C 1271.35,636.122 1255.35,633.955 1240.5,624C 1239.2,623.196 1238.53,622.029 1238.5,620.5C 1245.98,544.545 1252.98,468.545 1259.5,392.5C 1260.1,389.873 1260.6,387.207 1261,384.5C 1266.83,380.667 1272.67,376.833 1278.5,373C 1315.4,368.881 1352.4,367.548 1389.5,369C 1407.37,369.505 1422.87,375.672 1436,387.5C 1441.57,394.971 1445.23,403.304 1447,412.5C 1450.08,436.647 1448.75,460.647 1443,484.5C 1440.13,495.25 1434.96,504.583 1427.5,512.5 Z M 1380.5,484.5 C 1361.88,493.86 1342.04,498.193 1321,497.5C 1316.83,497.167 1312.67,496.833 1308.5,496.5C 1310.98,476.53 1313.31,456.53 1315.5,436.5C 1329.49,435.542 1343.49,435.375 1357.5,436C 1365.68,436.5 1372.85,439.333 1379,444.5C 1383.27,453.35 1384.61,462.683 1383,472.5C 1382.16,476.514 1381.33,480.514 1380.5,484.5 Z"/></g>
<g><path style="opacity:0.995" fill="#1f1f1f" d="M 2360.5,514.5 C 2360.71,515.922 2361.21,517.255 2362,518.5C 2383.51,474.145 2405.01,429.811 2426.5,385.5C 2428.35,381.947 2430.02,378.28 2431.5,374.5C 2433.22,373.066 2435.22,372.233 2437.5,372C 2452.17,369.159 2466.83,369.326 2481.5,372.5C 2476.37,458.851 2471.04,545.184 2465.5,631.5C 2462.83,631.5 2460.17,631.5 2457.5,631.5C 2441.68,630.504 2425.68,630.17 2409.5,630.5C 2409.5,627.5 2409.5,624.5 2409.5,621.5C 2411.28,584.48 2413.11,547.48 2415,510.5C 2411.53,518.417 2408.36,526.417 2405.5,534.5C 2391.44,565.626 2377.61,596.959 2364,628.5C 2362.67,629.582 2361.17,630.249 2359.5,630.5C 2351.75,632.715 2345.25,630.715 2340,624.5C 2330.51,586.871 2321.18,549.204 2312,511.5C 2309.95,524.318 2308.78,537.318 2308.5,550.5C 2306.55,577.505 2304.55,604.505 2302.5,631.5C 2299.83,631.5 2297.17,631.5 2294.5,631.5C 2278.5,631.5 2262.5,631.5 2246.5,631.5C 2251.17,548.791 2256.5,466.124 2262.5,383.5C 2262.21,379.894 2262.54,376.394 2263.5,373C 2283.18,366.825 2302.68,367.325 2322,374.5C 2334.94,421.156 2347.78,467.823 2360.5,514.5 Z"/></g>
<g><path style="opacity:0.995" fill="#1f1f1f" d="M 1806.5,513.5 C 1794.53,525.601 1780.19,533.768 1763.5,538C 1736.75,544.941 1709.75,550.441 1682.5,554.5C 1681.84,558.466 1681.5,562.466 1681.5,566.5C 1679.76,587.571 1677.43,608.571 1674.5,629.5C 1672.27,630.577 1669.94,631.244 1667.5,631.5C 1650.35,637.122 1634.35,634.955 1619.5,625C 1618.2,624.196 1617.53,623.029 1617.5,621.5C 1624.98,545.545 1631.98,469.545 1638.5,393.5C 1639.1,390.873 1639.6,388.207 1640,385.5C 1645.83,381.667 1651.67,377.833 1657.5,374C 1694.4,369.881 1731.4,368.548 1768.5,370C 1786.37,370.505 1801.87,376.672 1815,388.5C 1820.57,395.971 1824.23,404.304 1826,413.5C 1829.08,437.647 1827.75,461.647 1822,485.5C 1819.13,496.25 1813.96,505.583 1806.5,513.5 Z M 1759.5,485.5 C 1740.88,494.86 1721.04,499.193 1700,498.5C 1695.83,498.167 1691.67,497.833 1687.5,497.5C 1689.98,477.53 1692.31,457.53 1694.5,437.5C 1708.49,436.542 1722.49,436.375 1736.5,437C 1744.68,437.5 1751.85,440.333 1758,445.5C 1762.27,454.35 1763.61,463.683 1762,473.5C 1761.16,477.514 1760.33,481.514 1759.5,485.5 Z"/></g>
<g><path style="opacity:0.995" fill="#1f1f1f" d="M 2219.5,507.5 C 2206.39,519.561 2191.05,527.727 2173.5,532C 2172.55,532.718 2172.38,533.551 2173,534.5C 2174.98,536.899 2177.15,538.899 2179.5,540.5C 2197.07,563.953 2214.91,587.287 2233,610.5C 2231.38,616.39 2228.21,621.39 2223.5,625.5C 2212.35,635.373 2199.35,638.873 2184.5,636C 2181.83,635.333 2179.17,634.667 2176.5,634C 2155.96,605.095 2135.8,575.928 2116,546.5C 2108.86,545.793 2101.7,546.126 2094.5,547.5C 2094.11,551.707 2094.11,555.707 2094.5,559.5C 2091.94,582.801 2089.44,606.135 2087,629.5C 2084.53,630.601 2082.03,631.601 2079.5,632.5C 2069.92,634.311 2060.25,634.811 2050.5,634C 2043.26,632.296 2036.76,629.129 2031,624.5C 2030.33,619.167 2030.33,613.833 2031,608.5C 2037.94,537.201 2044.44,465.868 2050.5,394.5C 2050.84,391.438 2051.51,388.438 2052.5,385.5C 2057.7,381.803 2063.03,378.303 2068.5,375C 2107.37,369.849 2146.37,368.516 2185.5,371C 2224.15,375.502 2242.48,397.335 2240.5,436.5C 2239.9,450.993 2238.06,465.326 2235,479.5C 2232.13,490.25 2226.96,499.583 2219.5,507.5 Z M 2172.5,479.5 C 2158.52,486.912 2143.52,490.745 2127.5,491C 2118.51,491.5 2109.51,491.666 2100.5,491.5C 2102.21,473.783 2104.21,456.117 2106.5,438.5C 2123.53,435.776 2140.53,435.943 2157.5,439C 2167,440.5 2172.5,446 2174,455.5C 2174.94,463.622 2174.44,471.622 2172.5,479.5 Z"/></g>
<g><path style="opacity:0.995" fill="#1f1f1f" d="M 2012.5,423.5 C 1976.17,423.5 1939.83,423.5 1903.5,423.5C 1903.5,427.833 1903.5,432.167 1903.5,436.5C 1902.26,447.105 1901.59,457.772 1901.5,468.5C 1932.51,468.167 1963.51,468.5 1994.5,469.5C 2001.58,485.43 2001.08,501.097 1993,516.5C 1991.64,517.38 1990.14,517.714 1988.5,517.5C 1957.83,517.5 1927.17,517.5 1896.5,517.5C 1896.53,521.869 1896.2,526.202 1895.5,530.5C 1894.86,543.863 1893.86,557.197 1892.5,570.5C 1931.17,570.333 1969.83,570.5 2008.5,571C 2018.02,590.982 2017.02,610.482 2005.5,629.5C 2004.68,630.386 2003.68,630.719 2002.5,630.5C 1948.17,630.667 1893.83,630.5 1839.5,630C 1837.92,629.293 1836.42,628.46 1835,627.5C 1833.39,618.936 1833.06,610.27 1834,601.5C 1838.6,529.455 1843.43,457.455 1848.5,385.5C 1848.49,380.362 1850.49,376.195 1854.5,373C 1909.84,372.167 1965.17,372.333 2020.5,373.5C 2025.15,390.127 2024.31,406.46 2018,422.5C 2016.3,423.406 2014.47,423.739 2012.5,423.5 Z"/></g>
<g><path style="opacity:0.991" fill="#f6e245" d="M 1032.5,375.5 C 1074.6,415.995 1116.94,456.329 1159.5,496.5C 1160.63,498.074 1160.8,499.741 1160,501.5C 1151.23,510.176 1142.73,518.843 1134.5,527.5C 1100.17,485.5 1065.83,443.5 1031.5,401.5C 1031.17,392.651 1031.51,383.984 1032.5,375.5 Z"/></g>
<g><path style="opacity:0.826" fill="#fcfcfc" d="M 1490.5,380.5 C 1462.13,461.58 1433.46,542.58 1404.5,623.5C 1409.65,629.585 1416.31,633.419 1424.5,635C 1435.45,636.379 1446.45,636.879 1457.5,636.5C 1456.13,640.774 1454.46,644.941 1452.5,649C 1434.87,652.041 1417.87,650.041 1401.5,643C 1398.81,641.302 1396.48,639.302 1394.5,637C 1424.86,552.909 1455.03,468.743 1485,384.5C 1486.77,383.035 1488.61,381.702 1490.5,380.5 Z"/></g>
<g><path style="opacity:0.866" fill="#fefefe" d="M 2262.5,383.5 C 2256.5,466.124 2251.17,548.791 2246.5,631.5C 2262.5,631.5 2278.5,631.5 2294.5,631.5C 2294.07,635.824 2293.74,640.158 2293.5,644.5C 2274.5,644.5 2255.5,644.5 2236.5,644.5C 2242.31,558.838 2248.14,473.171 2254,387.5C 2256.37,385.314 2259.21,383.981 2262.5,383.5 Z"/></g>
<g><path style="opacity:0.877" fill="#fefefe" d="M 1848.5,385.5 C 1843.43,457.455 1838.6,529.455 1834,601.5C 1833.06,610.27 1833.39,618.936 1835,627.5C 1836.42,628.46 1837.92,629.293 1839.5,630C 1893.83,630.5 1948.17,630.667 2002.5,630.5C 2001.04,634.752 1999.04,638.752 1996.5,642.5C 1940.84,643.667 1885.17,643.833 1829.5,643C 1825.2,641.065 1823.2,637.732 1823.5,633C 1828.8,555.177 1833.97,477.344 1839,399.5C 1839.35,395.444 1840.68,391.777 1843,388.5C 1844.26,386.393 1846.1,385.393 1848.5,385.5 Z"/></g>
<g><path style="opacity:0.734" fill="#f7f7f7" d="M 2426.5,385.5 C 2405.01,429.811 2383.51,474.145 2362,518.5C 2361.21,517.255 2360.71,515.922 2360.5,514.5C 2381.29,472.258 2402.12,429.925 2423,387.5C 2423.82,386.177 2424.98,385.511 2426.5,385.5 Z"/></g>
<g><path style="opacity:0.857" fill="#fefefe" d="M 1259.5,392.5 C 1252.98,468.545 1245.98,544.545 1238.5,620.5C 1238.53,622.029 1239.2,623.196 1240.5,624C 1255.35,633.955 1271.35,636.122 1288.5,630.5C 1288.08,634.2 1287.41,637.867 1286.5,641.5C 1268.37,648.929 1250.7,648.095 1233.5,639C 1231.32,637.753 1229.98,635.92 1229.5,633.5C 1236.85,554.817 1244.35,476.15 1252,397.5C 1254.44,395.699 1256.94,394.032 1259.5,392.5 Z"/></g>
<g><path style="opacity:0.859" fill="#fefefe" d="M 1638.5,393.5 C 1631.98,469.545 1624.98,545.545 1617.5,621.5C 1617.53,623.029 1618.2,624.196 1619.5,625C 1634.35,634.955 1650.35,637.122 1667.5,631.5C 1667.35,635.663 1666.35,639.496 1664.5,643C 1650.69,647.989 1636.69,648.655 1622.5,645C 1617.84,643.005 1613.51,640.505 1609.5,637.5C 1608.98,632.896 1608.98,628.229 1609.5,623.5C 1611,621.821 1612.83,620.488 1615,619.5C 1615.17,618.667 1615.33,617.833 1615.5,617C 1613.64,610.932 1612.31,604.766 1611.5,598.5C 1618.02,531.982 1624.52,465.315 1631,398.5C 1633.44,396.699 1635.94,395.032 1638.5,393.5 Z"/></g>
<g><path style="opacity:0.859" fill="#fefefe" d="M 2050.5,394.5 C 2044.44,465.868 2037.94,537.201 2031,608.5C 2030.33,613.833 2030.33,619.167 2031,624.5C 2036.76,629.129 2043.26,632.296 2050.5,634C 2060.25,634.811 2069.92,634.311 2079.5,632.5C 2078.95,636.045 2078.29,639.545 2077.5,643C 2063.02,648.083 2048.35,648.749 2033.5,645C 2029.67,643.254 2026.01,641.254 2022.5,639C 2021.06,637.874 2020.39,636.374 2020.5,634.5C 2027.69,555.76 2035.35,477.093 2043.5,398.5C 2045.73,396.89 2048.06,395.557 2050.5,394.5 Z"/></g>
<g><path style="opacity:1" fill="#a39730" d="M 1031.5,401.5 C 1065.83,443.5 1100.17,485.5 1134.5,527.5C 1130.81,531.526 1127.14,535.526 1123.5,539.5C 1120.59,537.761 1118.09,535.428 1116,532.5C 1088.36,492.375 1060.19,452.708 1031.5,413.5C 1031.5,409.5 1031.5,405.5 1031.5,401.5 Z"/></g>
<g><path style="opacity:1" fill="#2d5f8f" d="M 363.5,410.5 C 364.376,410.369 365.043,410.702 365.5,411.5C 390.792,463.748 415.792,516.082 440.5,568.5C 440.5,568.833 440.5,569.167 440.5,569.5C 440.461,570.756 440.961,571.756 442,572.5C 442.5,581.494 442.666,590.494 442.5,599.5C 441.094,599.027 440.427,598.027 440.5,596.5C 441.164,593.854 441.498,591.021 441.5,588C 441.584,584.38 441.084,580.88 440,577.5C 410.632,525.775 381.632,473.775 353,421.5C 352.329,420.748 351.496,420.414 350.5,420.5C 354.614,416.936 358.948,413.603 363.5,410.5 Z"/></g>
<g><path style="opacity:0.996" fill="#428dda" d="M 1031.5,413.5 C 1060.19,452.708 1088.36,492.375 1116,532.5C 1118.09,535.428 1120.59,537.761 1123.5,539.5C 1130.34,551.182 1138.18,562.182 1147,572.5C 1148.18,574.87 1149.35,577.203 1150.5,579.5C 1150.47,581.029 1149.8,582.196 1148.5,583C 1141.63,587.262 1134.97,591.762 1128.5,596.5C 1126.98,596.489 1125.82,595.823 1125,594.5C 1094.55,538.586 1063.38,483.253 1031.5,428.5C 1031.5,423.5 1031.5,418.5 1031.5,413.5 Z"/></g>
<g><path style="opacity:0.865" fill="#fdfdfd" d="M 2513.5,416.5 C 2509.48,423.876 2505.98,431.543 2503,439.5C 2491.81,473.365 2488.15,508.031 2492,543.5C 2495.06,570.441 2506.22,593.275 2525.5,612C 2549.39,630.629 2576.39,638.295 2606.5,635C 2623.36,631.325 2639.69,626.159 2655.5,619.5C 2654.98,622.568 2654.14,625.568 2653,628.5C 2631.06,640.644 2607.56,647.644 2582.5,649.5C 2529.75,646.565 2497.25,619.565 2485,568.5C 2478.63,530.967 2480.96,493.967 2492,457.5C 2496.59,442.319 2503.75,428.652 2513.5,416.5 Z"/></g>
<g><path style="opacity:0.996" fill="#408ddb" d="M 350.5,420.5 C 351.496,420.414 352.329,420.748 353,421.5C 381.632,473.775 410.632,525.775 440,577.5C 441.084,580.88 441.584,584.38 441.5,588C 441.498,591.021 441.164,593.854 440.5,596.5C 413.864,559.918 387.697,522.918 362,485.5C 360.871,483.859 359.371,482.859 357.5,482.5C 346.971,467.804 336.638,452.971 326.5,438C 326.759,436.739 327.426,435.739 328.5,435C 336.004,430.311 343.338,425.478 350.5,420.5 Z"/></g>
<g><path style="opacity:0.869" fill="#fcfcfc" d="M 1380.5,484.5 C 1381.33,480.514 1382.16,476.514 1383,472.5C 1384.61,462.683 1383.27,453.35 1379,444.5C 1372.85,439.333 1365.68,436.5 1357.5,436C 1343.49,435.375 1329.49,435.542 1315.5,436.5C 1315.34,433.813 1315.5,431.146 1316,428.5C 1316.2,426.598 1317.03,425.098 1318.5,424C 1334.81,422.575 1351.14,422.241 1367.5,423C 1387.21,424.212 1395.71,434.712 1393,454.5C 1392.1,461.684 1390.43,468.684 1388,475.5C 1386.39,479.275 1383.89,482.275 1380.5,484.5 Z"/></g>
<g><path style="opacity:0.869" fill="#fcfcfc" d="M 1759.5,485.5 C 1760.33,481.514 1761.16,477.514 1762,473.5C 1763.61,463.683 1762.27,454.35 1758,445.5C 1751.85,440.333 1744.68,437.5 1736.5,437C 1722.49,436.375 1708.49,436.542 1694.5,437.5C 1694.34,434.813 1694.5,432.146 1695,429.5C 1695.2,427.598 1696.03,426.098 1697.5,425C 1713.81,423.575 1730.14,423.241 1746.5,424C 1766.21,425.212 1774.71,435.712 1772,455.5C 1771.1,462.684 1769.43,469.684 1767,476.5C 1765.39,480.275 1762.89,483.275 1759.5,485.5 Z"/></g>
<g><path style="opacity:0.875" fill="#fefefe" d="M 2012.5,423.5 C 2012.17,427.816 2010.84,431.816 2008.5,435.5C 1973.51,436.5 1938.51,436.833 1903.5,436.5C 1903.5,432.167 1903.5,427.833 1903.5,423.5C 1939.83,423.5 1976.17,423.5 2012.5,423.5 Z"/></g>
<g><path style="opacity:0.873" fill="#fbfbfb" d="M 2172.5,479.5 C 2174.44,471.622 2174.94,463.622 2174,455.5C 2172.5,446 2167,440.5 2157.5,439C 2140.53,435.943 2123.53,435.776 2106.5,438.5C 2106.33,434.486 2106.5,430.486 2107,426.5C 2109.07,425.736 2111.24,425.236 2113.5,425C 2128.14,423.584 2142.81,423.251 2157.5,424C 2174.75,424.252 2183.75,432.919 2184.5,450C 2184.25,459.516 2181.75,468.35 2177,476.5C 2175.87,478.141 2174.37,479.141 2172.5,479.5 Z"/></g>
<g><path style="opacity:0.86" fill="#fdfdfd" d="M 2665.5,442.5 C 2662.82,449.173 2658.65,454.84 2653,459.5C 2629.62,445.753 2604.79,441.586 2578.5,447C 2571.45,450.183 2565.12,454.35 2559.5,459.5C 2566.1,447.406 2575.76,438.573 2588.5,433C 2614.17,428.659 2638.5,432.825 2661.5,445.5C 2662.85,444.476 2664.19,443.476 2665.5,442.5 Z"/></g>
<g><path style="opacity:0.999" fill="#2b5e91" d="M 1031.5,428.5 C 1063.38,483.253 1094.55,538.586 1125,594.5C 1125.82,595.823 1126.98,596.489 1128.5,596.5C 1123.98,600.561 1118.98,603.895 1113.5,606.5C 1112.25,606.423 1111.42,605.756 1111,604.5C 1084.94,549.497 1058.77,494.497 1032.5,439.5C 1031.58,435.936 1031.24,432.269 1031.5,428.5 Z"/></g>
<g><path style="opacity:0.999" fill="#94d405" d="M 1032.5,439.5 C 1058.77,494.497 1084.94,549.497 1111,604.5C 1111.42,605.756 1112.25,606.423 1113.5,606.5C 1119.72,620.311 1126.06,634.145 1132.5,648C 1132.24,649.261 1131.57,650.261 1130.5,651C 1126.99,652.372 1123.66,654.038 1120.5,656C 1113.76,658.206 1107.42,661.206 1101.5,665C 1099.87,665.494 1098.2,665.66 1096.5,665.5C 1075.29,596.332 1053.63,527.332 1031.5,458.5C 1031.18,451.978 1031.51,445.645 1032.5,439.5 Z"/></g>
<g><path style="opacity:1" fill="#2f2f2f" d="M 783.5,497.5 C 741.069,528.573 699.069,560.406 657.5,593C 652.726,595.28 648.726,594.446 645.5,590.5C 689.167,555.167 732.833,519.833 776.5,484.5C 794.105,470.372 811.772,456.539 829.5,443C 813.985,461.014 798.652,479.181 783.5,497.5 Z"/></g>
<g><path style="opacity:0.872" fill="#fcfcfc" d="M 1520.5,532.5 C 1517.04,514.367 1513.37,496.367 1509.5,478.5C 1511.08,469.911 1513.58,461.578 1517,453.5C 1521.83,478.829 1526.67,504.163 1531.5,529.5C 1531.18,530.647 1530.52,531.481 1529.5,532C 1526.52,532.498 1523.52,532.665 1520.5,532.5 Z"/></g>
<g><path style="opacity:0.998" fill="#6a9301" d="M 1031.5,458.5 C 1053.63,527.332 1075.29,596.332 1096.5,665.5C 1092.33,668.312 1087.99,670.979 1083.5,673.5C 1079.35,659.874 1075.68,646.208 1072.5,632.5C 1072.59,629.848 1071.92,627.515 1070.5,625.5C 1058.1,572.568 1045.1,519.901 1031.5,467.5C 1031.5,464.5 1031.5,461.5 1031.5,458.5 Z"/></g>
<g><path style="opacity:1" fill="#fc4f56" d="M 1031.5,467.5 C 1045.1,519.901 1058.1,572.568 1070.5,625.5C 1070.41,628.152 1071.08,630.485 1072.5,632.5C 1075.68,646.208 1079.35,659.874 1083.5,673.5C 1087.75,690.679 1092.09,707.846 1096.5,725C 1095.28,726.74 1093.62,727.74 1091.5,728C 1075.61,732.14 1059.61,735.973 1043.5,739.5C 1040.43,663.966 1036.43,588.633 1031.5,513.5C 1031.5,498.167 1031.5,482.833 1031.5,467.5 Z"/></g>
<g><path style="opacity:1" fill="#a19632" d="M 357.5,482.5 C 359.371,482.859 360.871,483.859 362,485.5C 387.697,522.918 413.864,559.918 440.5,596.5C 440.427,598.027 441.094,599.027 442.5,599.5C 442.827,609.348 442.494,619.014 441.5,628.5C 441.666,621.825 441.5,615.158 441,608.5C 409.999,570.003 378.833,531.669 347.5,493.5C 350.123,489.209 353.456,485.543 357.5,482.5 Z"/></g>
<g><path style="opacity:0.991" fill="#f5e245" d="M 347.5,493.5 C 378.833,531.669 409.999,570.003 441,608.5C 441.5,615.158 441.666,621.825 441.5,628.5C 441.5,628.833 441.5,629.167 441.5,629.5C 414.29,604.121 387.29,578.621 360.5,553C 358.963,551.89 358.297,550.39 358.5,548.5C 357.448,548.649 356.448,548.483 355.5,548C 345.266,537.598 334.932,527.431 324.5,517.5C 330.195,510.127 336.362,503.127 343,496.5C 344.615,495.614 346.115,494.614 347.5,493.5 Z"/></g>
<g><path style="opacity:0.829" fill="#fafafa" d="M 2219.5,507.5 C 2210.47,523.518 2197.13,534.518 2179.5,540.5C 2177.15,538.899 2174.98,536.899 2173,534.5C 2172.38,533.551 2172.55,532.718 2173.5,532C 2191.05,527.727 2206.39,519.561 2219.5,507.5 Z"/></g>
<g><path style="opacity:0.866" fill="#fefefe" d="M 2409.5,621.5 C 2408.52,624.625 2408.19,627.958 2408.5,631.5C 2424.83,631.5 2441.17,631.5 2457.5,631.5C 2457.41,635.857 2457.08,640.19 2456.5,644.5C 2437.5,644.5 2418.5,644.5 2399.5,644.5C 2401.54,607.836 2403.54,571.169 2405.5,534.5C 2408.36,526.417 2411.53,518.417 2415,510.5C 2413.11,547.48 2411.28,584.48 2409.5,621.5 Z"/></g>
<g><path style="opacity:0.868" fill="#fbfbfb" d="M 2359.5,630.5 C 2358.12,634.26 2356.46,637.926 2354.5,641.5C 2345.96,646.196 2338.13,645.196 2331,638.5C 2323.47,609.061 2315.97,579.728 2308.5,550.5C 2308.78,537.318 2309.95,524.318 2312,511.5C 2321.18,549.204 2330.51,586.871 2340,624.5C 2345.25,630.715 2351.75,632.715 2359.5,630.5 Z"/></g>
<g><path style="opacity:0.854" fill="#fbfbfb" d="M 1427.5,512.5 C 1419.9,526.929 1408.57,537.429 1393.5,544C 1384.47,547.924 1375.14,550.924 1365.5,553C 1349.5,556.667 1333.5,560.333 1317.5,564C 1312.55,565.05 1307.55,565.55 1302.5,565.5C 1302.5,561.466 1302.84,557.466 1303.5,553.5C 1330.75,549.441 1357.75,543.941 1384.5,537C 1401.19,532.768 1415.53,524.601 1427.5,512.5 Z"/></g>
<g><path style="opacity:0.854" fill="#fbfbfb" d="M 1806.5,513.5 C 1798.9,527.929 1787.57,538.429 1772.5,545C 1763.47,548.924 1754.14,551.924 1744.5,554C 1728.5,557.667 1712.5,561.333 1696.5,565C 1691.55,566.05 1686.55,566.55 1681.5,566.5C 1681.5,562.466 1681.84,558.466 1682.5,554.5C 1709.75,550.441 1736.75,544.941 1763.5,538C 1780.19,533.768 1794.53,525.601 1806.5,513.5 Z"/></g>
<g><path style="opacity:0.892" fill="#fefefe" d="M 1988.5,517.5 C 1987.81,522.044 1986.15,526.211 1983.5,530C 1954.17,530.5 1924.84,530.667 1895.5,530.5C 1896.2,526.202 1896.53,521.869 1896.5,517.5C 1927.17,517.5 1957.83,517.5 1988.5,517.5 Z"/></g>
<g><path style="opacity:1" fill="#a7a7a7" d="M 776.5,484.5 C 732.833,519.833 689.167,555.167 645.5,590.5C 642.733,592.918 639.733,593.084 636.5,591C 607.22,577.919 577.553,565.586 547.5,554C 542.919,550.562 541.419,546.062 543,540.5C 543.66,538.676 544.827,537.343 546.5,536.5C 544.947,542.915 546.947,548.081 552.5,552C 581.293,564.321 610.293,576.154 639.5,587.5C 640.938,587.281 642.271,586.781 643.5,586C 676.319,560.092 709.319,534.425 742.5,509C 753.715,500.569 765.049,492.403 776.5,484.5 Z"/></g>
<g><path style="opacity:1" fill="#af363c" d="M 1031.5,513.5 C 1036.43,588.633 1040.43,663.966 1043.5,739.5C 1039.63,739.872 1035.96,740.872 1032.5,742.5C 1031.5,666.238 1031.17,589.904 1031.5,513.5 Z"/></g>
<g><path style="opacity:0.865" fill="#fcfcfc" d="M 2223.5,625.5 C 2216.29,641.513 2203.79,649.846 2186,650.5C 2179.38,649.983 2172.88,648.816 2166.5,647C 2146.38,617.062 2125.72,587.562 2104.5,558.5C 2101.24,559.417 2097.91,559.751 2094.5,559.5C 2094.11,555.707 2094.11,551.707 2094.5,547.5C 2101.7,546.126 2108.86,545.793 2116,546.5C 2135.8,575.928 2155.96,605.095 2176.5,634C 2179.17,634.667 2181.83,635.333 2184.5,636C 2199.35,638.873 2212.35,635.373 2223.5,625.5 Z"/></g>
<g><path style="opacity:0.87" fill="#fcfcfc" d="M 1605.5,624.5 C 1606.54,627.114 1607.04,629.78 1607,632.5C 1594.75,640.062 1581.42,643.396 1567,642.5C 1559.41,642.609 1551.91,641.942 1544.5,640.5C 1540.66,625.47 1536.66,610.47 1532.5,595.5C 1531.33,595.167 1530.17,594.833 1529,594.5C 1510.5,596.876 1492,599.209 1473.5,601.5C 1474.63,597.45 1475.96,593.45 1477.5,589.5C 1478.33,589.167 1479.17,588.833 1480,588.5C 1500.76,585.482 1521.43,583.148 1542,581.5C 1545.78,596.805 1549.95,611.972 1554.5,627C 1571.77,630.943 1588.77,630.109 1605.5,624.5 Z"/></g>
<g><path style="opacity:1" fill="#aaaaaa" d="M 857.5,676.5 C 862.193,680.766 867.359,681.432 873,678.5C 873.406,675.258 874.239,672.258 875.5,669.5C 876.412,679.921 871.746,684.588 861.5,683.5C 834.38,672.685 807.38,661.685 780.5,650.5C 777.744,648.796 774.744,647.463 771.5,646.5C 750.571,636.74 729.237,627.74 707.5,619.5C 707.167,619.833 706.833,620.167 706.5,620.5C 712.46,630.874 716.96,641.874 720,653.5C 721.753,662.539 723.586,671.539 725.5,680.5C 722.757,684.425 720.757,688.758 719.5,693.5C 714.557,699.274 709.057,704.608 703,709.5C 702.536,710.094 702.369,710.761 702.5,711.5C 702.167,711.5 701.833,711.5 701.5,711.5C 699.304,710.146 697.804,708.146 697,705.5C 696.333,676.833 696.333,648.167 697,619.5C 697.465,618.069 698.299,616.903 699.5,616C 704.326,615.382 708.992,616.049 713.5,618C 761.428,637.802 809.428,657.302 857.5,676.5 Z"/></g>
<g><path style="opacity:1" fill="#959595" d="M 771.5,646.5 C 769.217,646.608 767.217,647.441 765.5,649C 750.047,663.618 734.714,678.451 719.5,693.5C 720.757,688.758 722.757,684.425 725.5,680.5C 723.586,671.539 721.753,662.539 720,653.5C 716.96,641.874 712.46,630.874 706.5,620.5C 706.833,620.167 707.167,619.833 707.5,619.5C 729.237,627.74 750.571,636.74 771.5,646.5 Z"/></g>
<g><path style="opacity:0.973" fill="#565656" d="M 2409.5,621.5 C 2409.5,624.5 2409.5,627.5 2409.5,630.5C 2425.68,630.17 2441.68,630.504 2457.5,631.5C 2441.17,631.5 2424.83,631.5 2408.5,631.5C 2408.19,627.958 2408.52,624.625 2409.5,621.5 Z"/></g>
<g><path style="opacity:1" fill="#bb6d31" d="M 1070.5,625.5 C 1071.92,627.515 1072.59,629.848 1072.5,632.5C 1071.08,630.485 1070.41,628.152 1070.5,625.5 Z"/></g>
<g><path style="opacity:1" fill="#2e2e2e" d="M 771.5,646.5 C 774.744,647.463 777.744,648.796 780.5,650.5C 759.063,670.1 737.729,689.933 716.5,710C 712.259,714.094 707.593,714.594 702.5,711.5C 702.369,710.761 702.536,710.094 703,709.5C 709.057,704.608 714.557,699.274 719.5,693.5C 734.714,678.451 750.047,663.618 765.5,649C 767.217,647.441 769.217,646.608 771.5,646.5 Z"/></g>
<g><path style="opacity:1" fill="#4c5930" d="M 738.5,812.5 C 754.833,811.167 771.167,811.167 787.5,812.5C 787.5,813.167 787.167,813.5 786.5,813.5C 775.346,812.505 764.012,812.172 752.5,812.5C 747.833,812.5 743.167,812.5 738.5,812.5 Z"/></g>
<g><path style="opacity:1" fill="#b0363c" d="M 508.5,812.5 C 584.833,812.5 661.167,812.5 737.5,812.5C 735.786,813.738 733.786,814.405 731.5,814.5C 728.854,813.836 726.021,813.502 723,813.5C 652.484,817.183 581.984,820.85 511.5,824.5C 510.503,820.521 509.503,816.521 508.5,812.5 Z"/></g>
<g><path style="opacity:0.997" fill="#6b9202" d="M 737.5,812.5 C 737.833,812.5 738.167,812.5 738.5,812.5C 743.167,812.5 747.833,812.5 752.5,812.5C 695.836,831.276 638.836,849.276 581.5,866.5C 579.309,862.593 577.309,858.593 575.5,854.5C 576.848,852.52 578.848,851.353 581.5,851C 631.594,839.133 681.594,826.967 731.5,814.5C 733.786,814.405 735.786,813.738 737.5,812.5 Z"/></g>
<g><path style="opacity:0.999" fill="#95d401" d="M 752.5,812.5 C 764.012,812.172 775.346,812.505 786.5,813.5C 739.051,835.885 691.384,858.385 643.5,881C 642.29,882.039 641.29,883.206 640.5,884.5C 626.797,890.309 613.297,896.642 600,903.5C 599,902.5 598,901.5 597,900.5C 591.552,889.242 586.385,877.909 581.5,866.5C 638.836,849.276 695.836,831.276 752.5,812.5 Z"/></g>
<g><path style="opacity:0.999" fill="#2d5f8e" d="M 787.5,812.5 C 791.5,812.5 795.5,812.5 799.5,812.5C 750.062,840.724 700.396,868.724 650.5,896.5C 647.543,892.208 644.21,888.208 640.5,884.5C 641.29,883.206 642.29,882.039 643.5,881C 691.384,858.385 739.051,835.885 786.5,813.5C 787.167,813.5 787.5,813.167 787.5,812.5 Z"/></g>
<g><path style="opacity:0.997" fill="#408dda" d="M 799.5,812.5 C 806.022,812.177 812.355,812.51 818.5,813.5C 784.196,837.657 749.862,861.824 715.5,886C 713.963,887.11 713.297,888.61 713.5,890.5C 698.219,900.452 683.219,910.785 668.5,921.5C 661.743,913.628 655.743,905.294 650.5,896.5C 700.396,868.724 750.062,840.724 799.5,812.5 Z"/></g>
<g><path style="opacity:1" fill="#a19632" d="M 832.5,812.5 C 796.539,841.489 760.539,870.489 724.5,899.5C 720.624,896.737 716.957,893.737 713.5,890.5C 713.297,888.61 713.963,887.11 715.5,886C 749.862,861.824 784.196,837.657 818.5,813.5C 823.07,812.559 827.737,812.226 832.5,812.5 Z"/></g>
<g><path style="opacity:0.992" fill="#f5e245" d="M 832.5,812.5 C 842.167,812.5 851.833,812.5 861.5,812.5C 826.04,850.802 789.874,888.802 753,926.5C 742.709,918.377 733.209,909.377 724.5,899.5C 760.539,870.489 796.539,841.489 832.5,812.5 Z"/></g>
<g><path style="opacity:1" fill="#fc4e56" d="M 731.5,814.5 C 681.594,826.967 631.594,839.133 581.5,851C 578.848,851.353 576.848,852.52 575.5,854.5C 558.279,858.613 540.945,862.613 523.5,866.5C 522.353,866.182 521.519,865.516 521,864.5C 517.922,851.109 514.755,837.776 511.5,824.5C 581.984,820.85 652.484,817.183 723,813.5C 726.021,813.502 728.854,813.836 731.5,814.5 Z"/></g>
</svg>
