<svg xmlns="http://www.w3.org/2000/svg" fill-rule="evenodd" clip-rule="evenodd" image-rendering="optimizeQuality" shape-rendering="geometricPrecision" text-rendering="geometricPrecision" viewBox="0 0 2944 1024">
  <path fill="#f6e245" d="M756.5 111.5a8 8 0 0 1-4 6.5c-43 34.3-85.6 68.8-128 103.5h-17c5.6-6.8 11.4-13.4 17.5-20a16160 16160 0 0 0 105.5-110 4.7 4.7 0 0 1 5-.5c7 7 14 14 21 20.5Z"/>
  <path fill="#428eda" d="M824.5 117.5a8 8 0 0 1 .5 4c-59.1 33.5-118.3 66.8-177.5 100-4.2.3-8.2 0-12-1a13645 13645 0 0 1 132-93.5 4 4 0 0 0 2-3.5 764 764 0 0 1 39.5-27l6 6c3 5.2 6.2 10.2 9.5 15Z"/>
  <path fill="#a39731" d="m756.5 111.5 13 12a4 4 0 0 1-2 3.5c-44.2 31-88.2 62.1-132 93.5h-1a28 28 0 0 1-10 1c42.4-34.7 85-69.2 128-103.5a8.3 8.3 0 0 0 4-6.5Z"/>
  <path fill="#94d405" d="M895.5 150.5a9219.7 9219.7 0 0 1-201 62.5c-3.8.9-7.1 2.4-10 4.5-4.6 1.4-9.3 2.8-14 4-4.9.3-9.5 0-14-1a22078 22078 0 0 1 178-84.5c1.3-.4 2-1.3 2-2.5 13.6-6 27.1-12.4 40.5-19a4 4 0 0 1 2 1c6 11.4 11.6 23.1 16.5 35Z"/>
  <path fill="#2b5f92" d="m824.5 117.5 12 16c0 1.3-.7 2-2 2.5-59.6 28-119 56.1-178 84.5h-1c-2.6.9-5.2 1.2-8 1 59.2-33.2 118.4-66.5 177.5-100a8 8 0 0 0-.5-4Z"/>
  <path fill="#6a9401" d="M895.5 150.5a70 70 0 0 0 7 13c-.1.6-.4 1.1-1 1.5-72.3 18-144.6 35.4-217 52.5 2.9-2.1 6.2-3.6 10-4.5 67.2-20 134.2-40.9 201-62.5Z"/>
  <path fill="#fd4f57" d="M969.5 209.5c-77.5 3.6-154.8 7.6-232 12h-67c4.7-1.2 9.4-2.6 14-4 72.4-17 144.7-34.6 217-52.5.6-.4.9-.9 1-1.5 17.5-4.7 35.1-8.5 53-11.5l2.5 5.5 11.5 52Z"/>
  <path fill="#b2363d" d="M969.5 209.5a31 31 0 0 1 3 12h-235c77.2-4.4 154.5-8.4 232-12Z"/>
  <path fill="#3c3b3b" d="M634.5 220.5h1c3.8 1 7.8 1.3 12 1 2.8.2 5.4-.1 8-1 2 1.3 4.6 2 7.5 2 2.7 0 5.2-.3 7.5-1h362v154c-1 8.5-1.3 17.2-1 26v27c-.3 3.8 0 7.4 1 11-1 6.1-1.3 12.5-1 19v55c-.3 76.4 0 152.7 1 229v70h-200c-4.8-.3-9.4 0-14 1-6.1-1-12.5-1.3-19-1h-12a300.7 300.7 0 0 0-49 0h-297v-184c1-9.5 1.3-19.2 1-29 .2-9 0-18-.5-27-1-.7-1.5-1.7-1.5-3 .6.1 1.1.4 1.5 1 .5-12 .7-24 .5-36 .3-85.8 0-171.5-1-257v-56h167c4.2.7 8.5 1 13 1 4.7 0 9-.7 13-2Z"/>
  <path fill="#716c3e" d="M634.5 220.5c-4 1.3-8.3 2-13 2-4.5 0-8.8-.3-13-1h16c3.4.2 6.8 0 10-1Z"/>
  <path fill="#576c2c" d="M655.5 220.5h1c4.5 1 9.1 1.3 14 1-2.3.7-4.8 1-7.5 1-3 0-5.4-.7-7.5-2Z"/>
  <path fill="#444" d="M455.5 237.5h562c.2 186.3 0 372.7-.5 559a39410 39410 0 0 1-561 0c-.5-186.3-.7-372.7-.5-559Z"/>
  <path fill="#8c383d" d="M441.5 277.5c1 85.5 1.3 171.2 1 257a5.8 5.8 0 0 1-2-4c1-10.5 1.3-21.2 1-32v-221Z"/>
  <path fill="#b0363c" d="M441.5 277.5v221c-5-72.8-9-145.8-12-219 4-.8 8-1.5 12-2Z"/>
  <path fill="#fd4e57" d="M429.5 279.5c3 73.2 7 146.2 12 219 .3 10.8 0 21.5-1 32a31990 31990 0 0 0-41-169 22 22 0 0 0-3-10c.1-2.6-.6-5-2-7-2.4-8.7-5-17.3-7.5-26-1.4-9.1-3-18.1-5-27a541 541 0 0 1 47.5-12Z"/>
  <path fill="#fefefe" d="M926.5 326.5c.6 7.3.5 14.6-.5 22a55230 55230 0 0 0-65.5 328h-3c-48-19.2-96-38.7-144-58.5a26 26 0 0 0-14-2 7 7 0 0 0-2.5 3.5c-.7 28.7-.7 57.3 0 86 .8 2.6 2.3 4.6 4.5 6-5.2 1.4-9.7 0-13.5-4-.7-32-.7-64 0-96 32-37.9 63.9-75.9 95.5-114a3576 3576 0 0 1 46-54.5 2799.3 2799.3 0 0 0-53 41.5c-11.5 7.9-22.8 16-34 24.5-33.2 25.4-66.2 51-99 77a9.7 9.7 0 0 1-4 1.5 2779 2779 0 0 1-87-35.5c-5.6-4-7.6-9-6-15.5.8-1.3 1.8-2.5 3-3.5 121.8-69.4 243.5-139 365-209 3-.7 6-.7 9 0 1.4.4 2.4 1.2 3 2.5Z"/>
  <path fill="#dbdbdb" d="M926.5 326.5c4.3 2 6 5.3 5 10a32401 32401 0 0 0-56 333c-1.3 2.8-2 5.8-2.5 9-5.6 3-10.8 2.3-15.5-2h3a55230 55230 0 0 1 65.5-328c1-7.4 1.1-14.7.5-22Z"/>
  <path fill="#2f2f2f" d="M861.5 683.5c10.2 1 15-3.6 14-14a32401 32401 0 0 1 56-333c2-2.4 4.4-2.6 7-.5 3 2.2 5 5 6 8.5-19 114.2-38.5 228.2-58.5 342-4 2.9-8.5 3.7-13.5 2.5a42 42 0 0 1-11-5.5Z"/>
  <path fill="#6b9203" d="M394.5 344.5c1.4 2 2.1 4.4 2 7a22 22 0 0 0 3 10 31990 31990 0 0 1 41 169c.2 1.7.8 3 2 4 .2 12 0 24-.5 36-.4-.6-.9-.9-1.5-1v-1c1.2-9.2 1.3-18.5.5-28-20-62.9-39.8-125.9-59.5-189 4-2.7 8.4-5 13-7Z"/>
  <path fill="#95d402" d="M381.5 351.5c19.7 63.1 39.5 126.1 59.5 189 .8 9.5.7 18.8-.5 28-24.7-52.4-49.7-104.8-75-157-.5-.8-1.1-1.1-2-1-6-13.7-12.4-27.2-19-40.5.3-1.3 1-2.3 2-3a462.9 462.9 0 0 1 35-15.5Z"/>
  <path fill="#a77626" d="M396.5 351.5a22 22 0 0 1 3 10 22 22 0 0 1-3-10Z"/>
  <path fill="#1f1f1f" d="M1611.5 598.5a112 112 0 0 0 4 18.5l-.5 2.5a16 16 0 0 0-5.5 4l-4 1a92.6 92.6 0 0 1-51 2.5c-4.5-15-8.7-30.2-12.5-45.5-20.6 1.6-41.2 4-62 7l-2.5 1c-1.5 4-2.9 8-4 12a418.4 418.4 0 0 1-12 34.5c-1.3.5-2.6.7-4 .5-11 .4-22-.1-33-1.5a33.7 33.7 0 0 1-20-11.5c29-81 57.6-162 86-243 1.3-4.2 3.3-8 6-11.5a48 48 0 0 1 50.5-.5c21.2 76.9 42.7 153.5 64.5 230Zm-102-120c3.9 17.9 7.5 35.9 11 54-10 1.7-20 2.8-30 3.5 6.4-19.2 12.8-38.4 19-57.5Zm1156-36-4 3a109.4 109.4 0 0 0-73-12.5 59.1 59.1 0 0 0-29 26.5 92.9 92.9 0 0 0-3.5 91 42 42 0 0 0 33.5 23.5c10.4.3 20.7-.4 31-2a474 474 0 0 0 38-8 58.7 58.7 0 0 1 3.5 51.5c-2 1.7-4.1 3-6.5 4a279 279 0 0 1-49 15.5 108 108 0 0 1-81-23 110 110 0 0 1-33.5-68.5c-3.8-35.5-.2-70.1 11-104 3-8 6.5-15.6 10.5-23a82 82 0 0 1 49-41.5c9.4-3.4 19-5.8 29-7 15.7-.7 31.3-.4 47 1a53.7 53.7 0 0 1 39.5 24.5c4.7 18.8.6 35.1-12.5 49Zm-1238 70a90.7 90.7 0 0 1-43 24.5c-26.8 7-53.8 12.4-81 16.5a1117.8 1117.8 0 0 1-8 75 21 21 0 0 1-7 2 52.6 52.6 0 0 1-48-6.5 4 4 0 0 1-2-3.5c7.5-76 14.5-152 21-228 .6-2.6 1.1-5.3 1.5-8l17.5-11.5a735 735 0 0 1 111-4c17.9.5 33.4 6.7 46.5 18.5a60.4 60.4 0 0 1 11 25c3 24.1 1.8 48.1-4 72-2.9 10.8-8 20-15.5 28Zm-47-28a121.5 121.5 0 0 1-59.5 13l-12.5-1c2.5-20 4.8-40 7-60 14-1 28-1.1 42-.5a36 36 0 0 1 21.5 8.5 45.9 45.9 0 0 1 4 28l-2.5 12Zm980 30c.2 1.4.7 2.8 1.5 4l64.5-133a113 113 0 0 0 5-11c1.7-1.4 3.7-2.3 6-2.5 14.7-2.8 29.3-2.7 44 .5-5.1 86.4-10.5 172.7-16 259h-8c-15.8-1-31.8-1.3-48-1v-9l5.5-111c-3.5 8-6.6 16-9.5 24-14 31.1-27.9 62.5-41.5 94a9.2 9.2 0 0 1-4.5 2c-7.8 2.2-14.3.2-19.5-6-9.5-37.6-18.8-75.3-28-113a285 285 0 0 0-3.5 39l-6 81h-56c4.7-82.7 10-165.4 16-248-.3-3.6 0-7.1 1-10.5a88 88 0 0 1 58.5 1.5c13 46.7 25.8 93.3 38.5 140Zm-554-1a90.7 90.7 0 0 1-43 24.5c-26.8 7-53.8 12.4-81 16.5a1117.8 1117.8 0 0 1-8 75 21 21 0 0 1-7 2 52.6 52.6 0 0 1-48-6.5 4 4 0 0 1-2-3.5c7.5-76 14.5-152 21-228 .6-2.6 1.1-5.3 1.5-8l17.5-11.5a735 735 0 0 1 111-4c17.9.5 33.4 6.7 46.5 18.5a60.4 60.4 0 0 1 11 25c3 24.1 1.8 48.1-4 72-2.9 10.8-8 20-15.5 28Zm-47-28a121.5 121.5 0 0 1-59.5 13l-12.5-1c2.5-20 4.8-40 7-60 14-1 28-1.1 42-.5a36 36 0 0 1 21.5 8.5 45.9 45.9 0 0 1 4 28l-2.5 12Zm460 22a102.7 102.7 0 0 1-46 24.5c-1 .7-1.1 1.6-.5 2.5a33 33 0 0 0 6.5 6c17.6 23.5 35.4 46.8 53.5 70a30.2 30.2 0 0 1-9.5 15 43.5 43.5 0 0 1-39 10.5l-8-2c-20.5-28.9-40.7-58-60.5-87.5-7.1-.7-14.3-.4-21.5 1-.4 4.2-.4 8.2 0 12-2.6 23.3-5 46.6-7.5 70l-7.5 3c-9.6 1.8-19.3 2.3-29 1.5a48.5 48.5 0 0 1-19.5-9.5 64 64 0 0 1 0-16c7-71.3 13.4-142.6 19.5-214 .3-3 1-6 2-9 5.2-3.7 10.5-7.2 16-10.5 38.9-5.2 77.9-6.5 117-4 38.7 4.5 57 26.3 55 65.5a253 253 0 0 1-5.5 43c-2.9 10.8-8 20-15.5 28Zm-47-28a98 98 0 0 1-45 11.5c-9 .5-18 .7-27 .5 1.7-17.7 3.7-35.4 6-53 17-2.7 34-2.6 51 .5 9.5 1.5 15 7 16.5 16.5 1 8.1.4 16.1-1.5 24Zm-160-56h-109v13c-1.2 10.6-2 21.3-2 32 31-.3 62 0 93 1 7 16 6.6 31.6-1.5 47a6.5 6.5 0 0 1-4.5 1h-92c0 4.4-.3 8.7-1 13-.6 13.4-1.6 26.7-3 40 38.7-.2 77.3 0 116 .5 9.5 20 8.5 39.5-3 58.5a3 3 0 0 1-3 1c-54.3.2-108.7 0-163-.5-1.6-.7-3-1.5-4.5-2.5a87 87 0 0 1-1-26c4.6-72 9.4-144 14.5-216 0-5.1 2-9.3 6-12.5a4593 4593 0 0 1 166 .5c4.7 16.6 3.8 33-2.5 49a9 9 0 0 1-5.5 1Z"/>
  <path fill="#f6e245" d="M1032.5 375.5a18585 18585 0 0 0 127 121 4.7 4.7 0 0 1 .5 5 1032 1032 0 0 0-25.5 26l-103-126c-.3-8.8 0-17.5 1-26Z"/>
  <path fill="#fcfcfc" d="M1490.5 380.5c-28.4 81-57 162-86 243 5.2 6 11.8 10 20 11.5 11 1.4 22 1.9 33 1.5-1.4 4.3-3 8.4-5 12.5-17.6 3-34.6 1-51-6a31 31 0 0 1-7-6 54011 54011 0 0 0 90.5-252.5c1.8-1.5 3.6-2.8 5.5-4Z" opacity=".8"/>
  <path fill="#fefefe" d="M2262.5 383.5c-6 82.6-11.3 165.3-16 248h48a297 297 0 0 0-1 13h-57l17.5-257c2.4-2.2 5.2-3.5 8.5-4Zm-414 2c-5 72-9.9 144-14.5 216a87 87 0 0 0 1 26c1.4 1 3 1.8 4.5 2.5 54.3.5 108.7.7 163 .5a50.6 50.6 0 0 1-6 12c-55.7 1.2-111.3 1.3-167 .5a9.4 9.4 0 0 1-6-10c5.3-77.8 10.5-155.7 15.5-233.5a22 22 0 0 1 4-11 5.7 5.7 0 0 1 5.5-3Z" opacity=".9"/>
  <path fill="#f7f7f7" d="m2426.5 385.5-64.5 133a9.7 9.7 0 0 1-1.5-4l62.5-127a4 4 0 0 1 3.5-2Z" opacity=".7"/>
  <path fill="#fefefe" d="M1259.5 392.5c-6.5 76-13.5 152-21 228a4 4 0 0 0 2 3.5 52.6 52.6 0 0 0 48 6.5c-.4 3.7-1 7.4-2 11a59.8 59.8 0 0 1-53-2.5 7.9 7.9 0 0 1-4-5.5c7.3-78.7 14.8-157.4 22.5-236 2.4-1.8 5-3.5 7.5-5Zm379 1c-6.5 76-13.5 152-21 228a4 4 0 0 0 2 3.5 52.6 52.6 0 0 0 48 6.5c-.2 4.2-1.2 8-3 11.5a69.7 69.7 0 0 1-42 2 62 62 0 0 1-13-7.5 63 63 0 0 1 0-14 16 16 0 0 1 5.5-4l.5-2.5a112 112 0 0 1-4-18.5l19.5-200c2.4-1.8 5-3.5 7.5-5Zm412 1a17439 17439 0 0 1-19.5 214 64 64 0 0 0 0 16 48.5 48.5 0 0 0 19.5 9.5c9.8.8 19.4.3 29-1.5-.6 3.5-1.2 7-2 10.5a74.8 74.8 0 0 1-44 2 87.5 87.5 0 0 1-11-6 5 5 0 0 1-2-4.5c7.2-78.7 14.8-157.4 23-236a35 35 0 0 1 7-4Z" opacity=".9"/>
  <path fill="#a39730" d="m1031.5 401.5 103 126-11 12c-3-1.7-5.4-4-7.5-7a5119.4 5119.4 0 0 0-84.5-119v-12Z"/>
  <path fill="#2d5f8f" d="M363.5 410.5c.9-.1 1.5.2 2 1 25.3 52.2 50.3 104.6 75 157v1c0 1.3.5 2.3 1.5 3 .5 9 .7 18 .5 27-1.4-.5-2-1.5-2-3a35 35 0 0 0-.5-19c-29.4-51.7-58.4-103.7-87-156-.7-.8-1.5-1-2.5-1a128 128 0 0 1 13-10Z"/>
  <path fill="#428dda" d="M1031.5 413.5c28.7 39.2 56.9 78.9 84.5 119 2 3 4.6 5.3 7.5 7a228 228 0 0 0 23.5 33l3.5 7a4 4 0 0 1-2 3.5 314 314 0 0 0-20 13.5 4 4 0 0 1-3.5-2 6664 6664 0 0 0-93.5-166v-15Z"/>
  <path fill="#fdfdfd" d="M2513.5 416.5c-4 7.4-7.5 15-10.5 23a243.9 243.9 0 0 0-11 104 110 110 0 0 0 33.5 68.5 108 108 0 0 0 81 23 279 279 0 0 0 49-15.5c-.5 3-1.4 6-2.5 9a169.8 169.8 0 0 1-70.5 21c-52.8-3-85.3-30-97.5-81-6.4-37.5-4-74.5 7-111a120.7 120.7 0 0 1 21.5-41Z" opacity=".9"/>
  <path fill="#408ddb" d="M350.5 420.5c1 0 1.8.2 2.5 1 28.6 52.3 57.6 104.3 87 156a35 35 0 0 1 .5 19 4931.6 4931.6 0 0 1-78.5-111 6.9 6.9 0 0 0-4.5-3 2051 2051 0 0 1-31-44.5c.3-1.3 1-2.3 2-3a557 557 0 0 0 22-14.5Z"/>
  <path fill="#fcfcfc" d="m1380.5 484.5 2.5-12c1.6-9.8.3-19.1-4-28a36 36 0 0 0-21.5-8.5c-14-.6-28-.5-42 .5-.2-2.7 0-5.4.5-8a6 6 0 0 1 2.5-4.5 367 367 0 0 1 49-1c19.7 1.2 28.2 11.7 25.5 31.5a99 99 0 0 1-5 21 19.8 19.8 0 0 1-7.5 9Zm379 1 2.5-12c1.6-9.8.3-19.1-4-28a36 36 0 0 0-21.5-8.5c-14-.6-28-.5-42 .5-.2-2.7 0-5.4.5-8a6 6 0 0 1 2.5-4.5 367 367 0 0 1 49-1c19.7 1.2 28.2 11.7 25.5 31.5a99 99 0 0 1-5 21 19.8 19.8 0 0 1-7.5 9Z" opacity=".9"/>
  <path fill="#fefefe" d="M2012.5 423.5a26 26 0 0 1-4 12c-35 1-70 1.3-105 1v-13h109Z" opacity=".9"/>
  <path fill="#fbfbfb" d="M2172.5 479.5c2-7.9 2.4-15.9 1.5-24-1.5-9.5-7-15-16.5-16.5-17-3-34-3.2-51-.5-.2-4 0-8 .5-12 2-.8 4.2-1.3 6.5-1.5 14.6-1.4 29.3-1.7 44-1 17.3.3 26.3 9 27 26a54.7 54.7 0 0 1-7.5 26.5 6.9 6.9 0 0 1-4.5 3Z" opacity=".9"/>
  <path fill="#fdfdfd" d="M2665.5 442.5a42 42 0 0 1-12.5 17 101.8 101.8 0 0 0-74.5-12.5c-7 3.2-13.4 7.4-19 12.5 6.6-12 16.3-21 29-26.5 25.7-4.3 50-.2 73 12.5l4-3Z" opacity=".9"/>
  <path fill="#2b5e91" d="M1031.5 428.5a6664 6664 0 0 1 93.5 166 4 4 0 0 0 3.5 2c-4.5 4-9.5 7.4-15 10-1.3 0-2-.7-2.5-2-26-55-52.2-110-78.5-165-1-3.6-1.3-7.2-1-11Z"/>
  <path fill="#94d405" d="M1032.5 439.5c26.3 55 52.4 110 78.5 165 .4 1.3 1.3 2 2.5 2 6.2 13.8 12.6 27.6 19 41.5-.3 1.3-1 2.3-2 3a61 61 0 0 0-10 5c-6.7 2.2-13 5.2-19 9a13 13 0 0 1-5 .5c-21.2-69.2-42.9-138.2-65-207-.3-6.5 0-12.9 1-19Z"/>
  <path fill="#2f2f2f" d="M783.5 497.5c-42.4 31-84.4 63-126 95.5-4.8 2.3-8.8 1.4-12-2.5l131-106c17.6-14.1 35.3-28 53-41.5a3576 3576 0 0 0-46 54.5Z"/>
  <path fill="#fcfcfc" d="M1520.5 532.5c-3.5-18.1-7.1-36.1-11-54 1.6-8.6 4-17 7.5-25l14.5 76c-.3 1.1-1 2-2 2.5-3 .5-6 .7-9 .5Z" opacity=".9"/>
  <path fill="#6a9301" d="M1031.5 458.5c22.1 68.8 43.8 137.8 65 207a187 187 0 0 1-13 8 627.1 627.1 0 0 1-11-41c0-2.7-.6-5-2-7-12.4-53-25.4-105.6-39-158v-9Z"/>
  <path fill="#fc4f56" d="M1031.5 467.5c13.6 52.4 26.6 105 39 158 0 2.7.6 5 2 7 3.2 13.7 6.8 27.4 11 41a5832 5832 0 0 0 13 51.5 6.9 6.9 0 0 1-5 3 1289 1289 0 0 1-48 11.5c-3-75.5-7-150.9-12-226v-46Z"/>
  <path fill="#a19632" d="M357.5 482.5a7 7 0 0 1 4.5 3c25.7 37.4 51.9 74.4 78.5 111 0 1.5.6 2.5 2 3 .3 9.8 0 19.5-1 29 .2-6.7 0-13.3-.5-20-31-38.5-62.2-76.8-93.5-115 2.6-4.3 6-8 10-11Z"/>
  <path fill="#f5e245" d="M347.5 493.5c31.3 38.2 62.5 76.5 93.5 115 .5 6.7.7 13.3.5 20v1a8911.5 8911.5 0 0 1-81-76.5 4.6 4.6 0 0 1-2-4.5c-1 .1-2 0-3-.5a1328.4 1328.4 0 0 0-31-30.5 217 217 0 0 1 18.5-21c1.6-.9 3.1-1.9 4.5-3Z"/>
  <path fill="#fafafa" d="M2219.5 507.5c-9 16-22.4 27-40 33a31.3 31.3 0 0 1-6.5-6c-.6-1-.4-1.8.5-2.5a102.7 102.7 0 0 0 46-24.5Z" opacity=".8"/>
  <path fill="#fefefe" d="M2409.5 621.5c-1 3.1-1.3 6.5-1 10h49c0 4.4-.4 8.7-1 13h-57l6-110c2.9-8 6-16 9.5-24l-5.5 111Z" opacity=".9"/>
  <path fill="#fbfbfb" d="M2359.5 630.5c-1.4 3.8-3 7.4-5 11-8.5 4.7-16.4 3.7-23.5-3l-22.5-88a285 285 0 0 1 3.5-39c9.2 37.7 18.5 75.4 28 113a17.4 17.4 0 0 0 19.5 6Zm-932-118a68 68 0 0 1-34 31.5c-9 4-18.4 7-28 9l-48 11c-5 1-10 1.5-15 1.5 0-4 .3-8 1-12 27.3-4 54.3-9.6 81-16.5a90.7 90.7 0 0 0 43-24.5Zm379 1a68 68 0 0 1-34 31.5c-9 4-18.4 7-28 9l-48 11c-5 1-10 1.5-15 1.5 0-4 .3-8 1-12 27.3-4 54.3-9.6 81-16.5a90.7 90.7 0 0 0 43-24.5Z" opacity=".9"/>
  <path fill="#fefefe" d="M1988.5 517.5a29 29 0 0 1-5 12.5c-29.3.5-58.7.7-88 .5.7-4.3 1-8.6 1-13h92Z" opacity=".9"/>
  <path fill="#a7a7a7" d="m776.5 484.5-131 106c-2.8 2.4-5.8 2.6-9 .5-29.3-13-59-25.4-89-37-4.6-3.4-6-8-4.5-13.5a7 7 0 0 1 3.5-4c-1.6 6.4.4 11.6 6 15.5a2779 2779 0 0 0 87 35.5c1.4-.2 2.8-.7 4-1.5 32.8-26 65.8-51.6 99-77 11.2-8.4 22.5-16.6 34-24.5Z"/>
  <path fill="#af363c" d="M1031.5 513.5c5 75.1 9 150.5 12 226a33 33 0 0 0-11 3c-1-76.3-1.3-152.6-1-229Z"/>
  <path fill="#fcfcfc" d="M2223.5 625.5a39.8 39.8 0 0 1-37.5 25 99.3 99.3 0 0 1-19.5-3.5c-20.1-30-40.8-59.4-62-88.5a26 26 0 0 1-10 1c-.4-3.8-.4-7.8 0-12a74.8 74.8 0 0 1 21.5-1c19.8 29.4 40 58.6 60.5 87.5l8 2a43.5 43.5 0 0 0 39-10.5Zm-618-1c1 2.6 1.5 5.3 1.5 8a66.5 66.5 0 0 1-40 10c-7.6.1-15-.6-22.5-2-3.8-15-7.8-30-12-45l-3.5-1-55.5 7c1.1-4 2.5-8 4-12l2.5-1c20.8-3 41.4-5.4 62-7 3.8 15.3 8 30.5 12.5 45.5 17.3 4 34.3 3.1 51-2.5Z" opacity=".9"/>
  <path fill="#aaa" d="M857.5 676.5c4.7 4.3 9.9 5 15.5 2a30 30 0 0 1 2.5-9c1 10.4-3.8 15-14 14a5886.4 5886.4 0 0 1-81-33c-2.8-1.7-5.8-3-9-4-21-9.8-42.3-18.8-64-27l-1 1a134 134 0 0 1 13.5 33l5.5 27a44 44 0 0 0-6 13 125 125 0 0 1-16.5 16c-.5.6-.6 1.3-.5 2h-1a10.3 10.3 0 0 1-4.5-6c-.7-28.7-.7-57.3 0-86a7 7 0 0 1 2.5-3.5 26 26 0 0 1 14 2c48 19.8 96 39.3 144 58.5Z"/>
  <path fill="#959595" d="M771.5 646.5c-2.3.1-4.3 1-6 2.5a2869 2869 0 0 0-46 44.5 44 44 0 0 1 6-13c-2-9-3.7-18-5.5-27a134 134 0 0 0-13.5-33l1-1c21.7 8.2 43 17.2 64 27Z"/>
  <path fill="#565656" d="M2409.5 621.5v9c16.2-.3 32.2 0 48 1h-49c-.3-3.5 0-6.9 1-10Z"/>
  <path fill="#bb6d31" d="M1070.5 625.5c1.4 2 2 4.3 2 7-1.4-2-2-4.3-2-7Z"/>
  <path fill="#2e2e2e" d="M771.5 646.5c3.2 1 6.2 2.3 9 4a5263 5263 0 0 0-64 59.5c-4.2 4-9 4.6-14 1.5-.1-.7 0-1.4.5-2a125 125 0 0 0 16.5-16 2869 2869 0 0 1 46-44.5 9.3 9.3 0 0 1 6-2.5Z"/>
  <path fill="#4c5930" d="M738.5 812.5c16.3-1.3 32.7-1.3 49 0 0 .7-.3 1-1 1a295 295 0 0 0-34-1h-14Z"/>
  <path fill="#b0363c" d="M508.5 812.5h229a10.8 10.8 0 0 1-6 2 35 35 0 0 0-8.5-1l-211.5 11-3-12Z"/>
  <path fill="#6b9202" d="M737.5 812.5h15a6371.9 6371.9 0 0 1-171 54c-2.2-4-4.2-8-6-12 1.3-2 3.3-3.1 6-3.5 50-11.9 100-24 150-36.5a11 11 0 0 0 6-2Z"/>
  <path fill="#95d401" d="M752.5 812.5a295 295 0 0 1 34 1l-143 67.5c-1.2 1-2.2 2.2-3 3.5a594.7 594.7 0 0 0-40.5 19l-3-3a809.6 809.6 0 0 1-15.5-34 6371.9 6371.9 0 0 0 171-54Z"/>
  <path fill="#2d5f8e" d="M787.5 812.5h12a15853 15853 0 0 1-149 84c-3-4.3-6.3-8.3-10-12 .8-1.3 1.8-2.5 3-3.5l143-67.5c.7 0 1-.3 1-1Z"/>
  <path fill="#408dda" d="M799.5 812.5c6.5-.3 12.9 0 19 1l-103 72.5a4.6 4.6 0 0 0-2 4.5 1051 1051 0 0 0-45 31 179.3 179.3 0 0 1-18-25 15853 15853 0 0 0 149-84Z"/>
  <path fill="#a19632" d="m832.5 812.5-108 87c-3.9-2.8-7.5-5.8-11-9-.2-1.9.5-3.4 2-4.5l103-72.5c4.6-1 9.2-1.3 14-1Z"/>
  <path fill="#f5e245" d="M832.5 812.5h29a5731 5731 0 0 1-108.5 114 218 218 0 0 1-28.5-27l108-87Z"/>
  <path fill="#fc4e56" d="M731.5 814.5c-50 12.5-100 24.6-150 36.5a8.2 8.2 0 0 0-6 3.5 3958 3958 0 0 1-52 12c-1.1-.3-2-1-2.5-2-3-13.4-6.2-26.7-9.5-40l211.5-11c3 0 5.9.3 8.5 1Z"/>
</svg>