<svg xmlns="http://www.w3.org/2000/svg" fill-rule="evenodd" clip-rule="evenodd" image-rendering="optimizeQuality" shape-rendering="geometricPrecision" text-rendering="geometricPrecision" viewBox="0 0 2944 1024">
  <path fill="#f6e245" d="M756.5 111.5a8 8 0 0 1-4 6.5c-43 34.3-85.6 68.8-128 103.5h-17c5.6-6.8 11.4-13.4 17.5-20a16160 16160 0 0 0 105.5-110 4.7 4.7 0 0 1 5-.5c7 7 14 14 21 20.5Z"/>
  <path fill="#428eda" d="M824.5 117.5a8 8 0 0 1 .5 4c-59.1 33.5-118.3 66.8-177.5 100-4.2.3-8.2 0-12-1a13645 13645 0 0 1 132-93.5 4 4 0 0 0 2-3.5 764 764 0 0 1 39.5-27l6 6c3 5.2 6.2 10.2 9.5 15Z"/>
  <path fill="#a39731" d="m756.5 111.5 13 12a4 4 0 0 1-2 3.5c-44.2 31-88.2 62.1-132 93.5h-1a28 28 0 0 1-10 1c42.4-34.7 85-69.2 128-103.5a8.3 8.3 0 0 0 4-6.5Z"/>
  <path fill="#94d405" d="M895.5 150.5a9219.7 9219.7 0 0 1-201 62.5c-3.8.9-7.1 2.4-10 4.5-4.6 1.4-9.3 2.8-14 4-4.9.3-9.5 0-14-1a22078 22078 0 0 1 178-84.5c1.3-.4 2-1.3 2-2.5 13.6-6 27.1-12.4 40.5-19a4 4 0 0 1 2 1c6 11.4 11.6 23.1 16.5 35Z"/>
  <path fill="#2b5f92" d="m824.5 117.5 12 16c0 1.3-.7 2-2 2.5-59.6 28-119 56.1-178 84.5h-1c-2.6.9-5.2 1.2-8 1 59.2-33.2 118.4-66.5 177.5-100a8 8 0 0 0-.5-4Z"/>
  <path fill="#6a9401" d="M895.5 150.5a70 70 0 0 0 7 13c-.1.6-.4 1.1-1 1.5-72.3 18-144.6 35.4-217 52.5 2.9-2.1 6.2-3.6 10-4.5 67.2-20 134.2-40.9 201-62.5Z"/>
  <path fill="#fd4f57" d="M969.5 209.5c-77.5 3.6-154.8 7.6-232 12h-67c4.7-1.2 9.4-2.6 14-4 72.4-17 144.7-34.6 217-52.5.6-.4.9-.9 1-1.5 17.5-4.7 35.1-8.5 53-11.5l2.5 5.5 11.5 52Z"/>
  <path fill="#b2363d" d="M969.5 209.5a31 31 0 0 1 3 12h-235c77.2-4.4 154.5-8.4 232-12Z"/>
  <path fill="#3c3b3b" d="M634.5 220.5h1c3.8 1 7.8 1.3 12 1 2.8.2 5.4-.1 8-1 2 1.3 4.6 2 7.5 2 2.7 0 5.2-.3 7.5-1h362v154c-1 8.5-1.3 17.2-1 26v27c-.3 3.8 0 7.4 1 11-1 6.1-1.3 12.5-1 19v55c-.3 76.4 0 152.7 1 229v70h-200c-4.8-.3-9.4 0-14 1-6.1-1-12.5-1.3-19-1h-12a300.7 300.7 0 0 0-49 0h-297v-184c1-9.5 1.3-19.2 1-29 .2-9 0-18-.5-27-1-.7-1.5-1.7-1.5-3 .6.1 1.1.4 1.5 1 .5-12 .7-24 .5-36 .3-85.8 0-171.5-1-257v-56h167c4.2.7 8.5 1 13 1 4.7 0 9-.7 13-2Z"/>
  <path fill="#716c3e" d="M634.5 220.5c-4 1.3-8.3 2-13 2-4.5 0-8.8-.3-13-1h16c3.4.2 6.8 0 10-1Z"/>
  <path fill="#576c2c" d="M655.5 220.5h1c4.5 1 9.1 1.3 14 1-2.3.7-4.8 1-7.5 1-3 0-5.4-.7-7.5-2Z"/>
  <path fill="#444" d="M455.5 237.5h562c.2 186.3 0 372.7-.5 559a39410 39410 0 0 1-561 0c-.5-186.3-.7-372.7-.5-559Z"/>
  <path fill="#8c383d" d="M441.5 277.5c1 85.5 1.3 171.2 1 257a5.8 5.8 0 0 1-2-4c1-10.5 1.3-21.2 1-32v-221Z"/>
  <path fill="#b0363c" d="M441.5 277.5v221c-5-72.8-9-145.8-12-219 4-.8 8-1.5 12-2Z"/>
  <path fill="#fd4e57" d="M429.5 279.5c3 73.2 7 146.2 12 219 .3 10.8 0 21.5-1 32a31990 31990 0 0 0-41-169 22 22 0 0 0-3-10c.1-2.6-.6-5-2-7-2.4-8.7-5-17.3-7.5-26-1.4-9.1-3-18.1-5-27a541 541 0 0 1 47.5-12Z"/>
  <path fill="#fefefe" d="M926.5 326.5c.6 7.3.5 14.6-.5 22a55230 55230 0 0 0-65.5 328h-3c-48-19.2-96-38.7-144-58.5a26 26 0 0 0-14-2 7 7 0 0 0-2.5 3.5c-.7 28.7-.7 57.3 0 86 .8 2.6 2.3 4.6 4.5 6-5.2 1.4-9.7 0-13.5-4-.7-32-.7-64 0-96 32-37.9 63.9-75.9 95.5-114a3576 3576 0 0 1 46-54.5 2799.3 2799.3 0 0 0-53 41.5c-11.5 7.9-22.8 16-34 24.5-33.2 25.4-66.2 51-99 77a9.7 9.7 0 0 1-4 1.5 2779 2779 0 0 1-87-35.5c-5.6-4-7.6-9-6-15.5.8-1.3 1.8-2.5 3-3.5 121.8-69.4 243.5-139 365-209 3-.7 6-.7 9 0 1.4.4 2.4 1.2 3 2.5Z"/>
  <path fill="#dbdbdb" d="M926.5 326.5c4.3 2 6 5.3 5 10a32401 32401 0 0 0-56 333c-1.3 2.8-2 5.8-2.5 9-5.6 3-10.8 2.3-15.5-2h3a55230 55230 0 0 1 65.5-328c1-7.4 1.1-14.7.5-22Z"/>
  <path fill="#2f2f2f" d="M861.5 683.5c10.2 1 15-3.6 14-14a32401 32401 0 0 1 56-333c2-2.4 4.4-2.6 7-.5 3 2.2 5 5 6 8.5-19 114.2-38.5 228.2-58.5 342-4 2.9-8.5 3.7-13.5 2.5a42 42 0 0 1-11-5.5Z"/>
  <path fill="#6b9203" d="M394.5 344.5c1.4 2 2.1 4.4 2 7a22 22 0 0 0 3 10 31990 31990 0 0 1 41 169c.2 1.7.8 3 2 4 .2 12 0 24-.5 36-.4-.6-.9-.9-1.5-1v-1c1.2-9.2 1.3-18.5.5-28-20-62.9-39.8-125.9-59.5-189 4-2.7 8.4-5 13-7Z"/>
  <path fill="#95d402" d="M381.5 351.5c19.7 63.1 39.5 126.1 59.5 189 .8 9.5.7 18.8-.5 28-24.7-52.4-49.7-104.8-75-157-.5-.8-1.1-1.1-2-1-6-13.7-12.4-27.2-19-40.5.3-1.3 1-2.3 2-3a462.9 462.9 0 0 1 35-15.5Z"/>
  <path fill="#a77626" d="M396.5 351.5a22 22 0 0 1 3 10 22 22 0 0 1-3-10Z"/>
  <path fill="#fefefe" d="M1602.5 566.5c4 16.9 8.3 33.7 13 50.5 0 1.1-.4 2.1-1 3a94.7 94.7 0 0 1-17 7.5c-1-.2-1.7.2-2 1-6.5.5-13 .8-19.5 1-7.3.3-14.5-.6-21.5-2.5l-13-45a523.4 523.4 0 0 0-64 7.5l-3 8a507.1 507.1 0 0 1-12.5 38 155 155 0 0 1-17.5 2 68.7 68.7 0 0 1-38-10.5 4 4 0 0 1-2-3.5l89-250a6.9 6.9 0 0 1 3-4.5 48 48 0 0 1 50.5-.5 73541 73541 0 0 0 55.5 198Zm-100-66c2.2 11.3 4.2 22.6 6 34-6 .7-12 1.2-18 1.5l12-35.5Zm1151-58a4.3 4.3 0 0 0-3-2.5c-17.7-7.3-36-10.3-55-9-8.4 2-15.7 5.9-22 11.5a87 87 0 0 0-24.5 43 84 84 0 0 0 13 74c8.9 10 20 15 33.5 15a319 319 0 0 0 63-10.5 55.1 55.1 0 0 1 2 53 115 115 0 0 1-19 7.5c-41.2 19.3-79.9 15-116-12.5-21-21-32.4-46.6-34.5-76.5a250.8 250.8 0 0 1 12-96c7.2-20.7 19-38 35.5-52 16-10.7 33.7-17.2 53-19.5 15.7-.7 31.3-.4 47 1a53.7 53.7 0 0 1 39.5 24.5c5 20.8-.4 38.5-16 53a33 33 0 0 0-8.5-4Zm-1205 7c-.9 18.6-5.4 36.3-13.5 53-3 4.5-6.2 8.8-9.5 13-.7 0-1 .3-1 1a103 103 0 0 1-31 18 727.2 727.2 0 0 1-90 19c-.6 3.2-.6 6.2 0 9-2.5 22-5.2 44-8 66-6.5 2.3-13.2 4-20 5a51.8 51.8 0 0 1-35-9.5 4 4 0 0 1-2-3.5c7.4-76.3 14.5-152.6 21.5-229 .1-3 1-5.7 2.5-8a290 290 0 0 1 16-10.5 735 735 0 0 1 111-4c16 .6 30.3 5.6 43 15 9 9.7 14.3 21.2 15.5 34.5.2 5.4.7 10.7 1.5 16-1 5-1.3 10-1 15Zm-133-16c12-.4 24 .1 36 1.5 11 1 17.4 6.8 19.5 17.5 2 14.5-.8 27.8-8.5 40a161.2 161.2 0 0 1-54 4c2.7-21 5-42 7-63Zm1041 64c1 7.2 2.9 14.2 5.5 21l66.5-137c.7-5.5 3.7-8.7 9-9.5 14.7-2.8 29.3-2.7 44 .5l-6 98c-2.2 28.3-3.9 56.6-5 85l-5 76h-20c-11.8-1-23.8-1.3-36-1v-9l5.5-111c-8.1 18.6-16 37.2-23.5 56-9.4 20.5-18.6 41.1-27.5 62-5.5 3-11.4 3.7-17.5 2-3-2.1-5.5-4.8-7.5-8-8.8-37-17.8-74-27-111a1882 1882 0 0 0-6.5 74c-.7 15.4-1.7 30.7-3 46h-56c4.9-84 10.2-168 16-252a11 11 0 0 1 1-6.5 88 88 0 0 1 58.5 1.5c11.4 41.2 22.9 82.2 34.5 123Zm-531-85c3.7 26.6 2 53-5 79a75 75 0 0 1-48 44 727.2 727.2 0 0 1-90 19c-.6 3.2-.6 6.2 0 9-2.5 22-5.2 44-8 66-6.5 2.3-13.2 4-20 5a51.8 51.8 0 0 1-35-9.5 4 4 0 0 1-2-3.5c7.4-76.3 14.5-152.6 21.5-229 .1-3 1-5.7 2.5-8a290 290 0 0 1 16-10.5 676 676 0 0 1 119-3 59.2 59.2 0 0 1 41.5 21.5 51 51 0 0 1 7.5 20Zm-131 22c12-.4 24 .1 36 1.5 11 1 17.4 6.8 19.5 17.5 2 14.5-.8 27.8-8.5 40a161.2 161.2 0 0 1-54 4c2.7-21 5-42 7-63Zm545-15a280 280 0 0 1-4 60 69.6 69.6 0 0 1-48 48c-5 1.7-10 3.5-15 5.5a3.8 3.8 0 0 0 3 2.5c16.6 23 34 45.3 52 67 1.4 3.2 3 6.4 5 9.5-2.2 4.3-4.6 8.5-7 12.5a39.1 39.1 0 0 1-23 12c-8.8.5-17.5-.3-26-2.5-20.5-28.9-40.7-58-60.5-87.5-.9-.6-1.9-1-3-1-6.1 1-12.3 1.7-18.5 2v11l-7.5 71a61.6 61.6 0 0 1-20.5 5c-12 1.4-23-1-33-7.5-1.9-1.3-3.2-3-4-5a52839 52839 0 0 0 21.5-228.5c0-3.3.9-6.3 2.5-9l15-9.5c41.2-5.7 82.6-6.7 124-3 27.3 4.5 43 20.3 47 47.5Zm-83 67a210 210 0 0 1-56 5l6-56c14.2-1.7 28.2-.9 42 2.5 10.8 4.7 15.5 13 14 25a46 46 0 0 1-6 23.5Zm-156-63h-97v11a397.7 397.7 0 0 0-2 34c31-.3 62 0 93 1 7.2 16.2 6.6 32-2 47.5-5.3.5-10.7.7-16 .5h-80v11c-1.5 14-2.8 28-4 42 38.7-.2 77.3 0 116 .5a296 296 0 0 1 5 11.5 80 80 0 0 1-4 41l-4 6a66 66 0 0 1-16 1c-50 .2-100 0-150-.5a10 10 0 0 1-7-10l16-236.5c1-4 3-7.6 6-10.5a4593 4593 0 0 1 166 .5c4.1 14.7 4 29.4-.5 44l-2.5 5.5c-5.7.5-11.3.7-17 .5Z"/>
  <path fill="#010101" d="m1493.5 373.5-89 250a4 4 0 0 0 2 3.5 68.7 68.7 0 0 0 38 10.5c-1 3.3-2.4 6.4-4 9.5-17.6 3-34.6 1-51-6a31 31 0 0 1-7-6c14.4-39.4 28.4-78.9 42-118.5.7 0 1-.3 1-1 3.3-4.2 6.5-8.5 9.5-13a135.3 135.3 0 0 0 13.5-53c8.2-22.2 16.4-44.5 24.5-67 6-4.8 12.8-7.8 20.5-9Z"/>
  <path fill="#f6e245" d="M1032.5 375.5a18585 18585 0 0 0 127 121 4.7 4.7 0 0 1 .5 5 1032 1032 0 0 0-25.5 26l-103-126c-.3-8.8 0-17.5 1-26Z"/>
  <path d="M2262.5 379.5c-5.8 84-11.1 168-16 252h36c-.4 3.7-.8 7.3-1 11h-57c.6-6 1-12 1-18 2.4-4 4.8-8.2 7-12.5-2-3-3.6-6.3-5-9.5 2.5-41 5.2-82 8-123a280 280 0 0 0 4-60c1-11.6 1.8-23.3 2.5-35a61.6 61.6 0 0 1 20.5-5Z"/>
  <path fill="#020202" d="m2428.5 381.5-66.5 137a97.5 97.5 0 0 1-5.5-21l54-112a43 43 0 0 1 18-4Z"/>
  <path d="M1262.5 383.5c-1.5 2.3-2.4 5-2.5 8-7 76.4-14.1 152.7-21.5 229a4 4 0 0 0 2 3.5 51.8 51.8 0 0 0 35 9.5 7 7 0 0 1-2 6.5 64.8 64.8 0 0 1-47 0l-8-5c6-79.8 13.2-159.7 21.5-239.5l17.5-11.5a13 13 0 0 1 5-.5Zm586 0-16 236.5a10 10 0 0 0 7 10c50 .5 100 .7 150 .5-1.1 3.6-2.8 7-5 10l-83.5 1c-28.6.2-57-.3-85.5-1.5a9.7 9.7 0 0 1-4-9c3.3-46.5 6.3-93 9-139.5 7-26 8.7-52.4 5-79 .7-6.5 1.6-13.2 2.5-20 1.2-3.2 3-6 5.5-8.5 5-.5 10-.7 15-.5Zm-207 1c-1.5 2.3-2.4 5-2.5 8-7 76.4-14.1 152.7-21.5 229a4 4 0 0 0 2 3.5 51.8 51.8 0 0 0 35 9.5c.8 4.3-.9 6.8-5 7.5a57.9 57.9 0 0 1-52-6 9.8 9.8 0 0 1 0-8.5 94.7 94.7 0 0 0 17-7.5c.6-.9 1-1.9 1-3-4.7-16.8-9-33.6-13-50.5 5.3-56.7 10.8-113.3 16.5-170l17.5-11.5a13 13 0 0 1 5-.5Zm412 0a17.8 17.8 0 0 0-2.5 9 52839 52839 0 0 1-21.5 228.5c.8 2 2.1 3.7 4 5 10 6.4 21 9 33 7.5.2 2 0 4-.5 6a68 68 0 0 1-49.5.5l-7.5-5.5c-.2-4 0-8 .5-12a80 80 0 0 0 4-41c5.3-62 11.3-124 18-186a94 94 0 0 1 22-12Z"/>
  <path fill="#010101" d="M2538.5 387.5a116.8 116.8 0 0 0-35.5 52 250.8 250.8 0 0 0-12 96c2 30 13.6 55.4 34.5 76.5 36.1 27.6 74.8 31.8 116 12.5a4 4 0 0 1-2 3.5c-18.5 9-37.8 15.3-58 19-63.2 1-100.2-29.6-111-91.5 1.1-28.4 2.8-56.7 5-85a157.8 157.8 0 0 1 26.5-58 92.6 92.6 0 0 1 36.5-25Z"/>
  <path fill="#a39730" d="m1031.5 401.5 103 126-11 12c-3-1.7-5.4-4-7.5-7a5119.4 5119.4 0 0 0-84.5-119v-12Z"/>
  <path fill="#2d5f8f" d="M363.5 410.5c.9-.1 1.5.2 2 1 25.3 52.2 50.3 104.6 75 157v1c0 1.3.5 2.3 1.5 3 .5 9 .7 18 .5 27-1.4-.5-2-1.5-2-3a35 35 0 0 0-.5-19c-29.4-51.7-58.4-103.7-87-156-.7-.8-1.5-1-2.5-1a128 128 0 0 1 13-10Z"/>
  <path fill="#428dda" d="M1031.5 413.5c28.7 39.2 56.9 78.9 84.5 119 2 3 4.6 5.3 7.5 7a228 228 0 0 0 23.5 33l3.5 7a4 4 0 0 1-2 3.5 314 314 0 0 0-20 13.5 4 4 0 0 1-3.5-2 6664 6664 0 0 0-93.5-166v-15Z"/>
  <path fill="#408ddb" d="M350.5 420.5c1 0 1.8.2 2.5 1 28.6 52.3 57.6 104.3 87 156a35 35 0 0 1 .5 19 4931.6 4931.6 0 0 1-78.5-111 6.9 6.9 0 0 0-4.5-3 2051 2051 0 0 1-31-44.5c.3-1.3 1-2.3 2-3a557 557 0 0 0 22-14.5Z"/>
  <path fill="#020202" d="M1362.5 492.5a57.2 57.2 0 0 0 8.5-40c-2-10.7-8.6-16.6-19.5-17.5a250 250 0 0 0-36-1.5c-.4-3.3.2-6.3 2-9a297 297 0 0 1 50-1.5 38 38 0 0 1 20.5 7.5c3.6 6 5.4 12.5 5.5 19.5a72 72 0 0 1-8.5 30.5c-6.4 6-14 10-22.5 12Zm379 1a57.2 57.2 0 0 0 8.5-40c-2-10.7-8.6-16.6-19.5-17.5a250 250 0 0 0-36-1.5c-.4-3.3.2-6.3 2-9a297 297 0 0 1 50-1.5 38 38 0 0 1 20.5 7.5c3.6 6 5.4 12.5 5.5 19.5a72 72 0 0 1-8.5 30.5c-6.4 6-14 10-22.5 12Z"/>
  <path d="M2000.5 423.5a47 47 0 0 1-4 10.5c-31 .5-62 .7-93 .5v-11h97Z"/>
  <path fill="#020202" d="M2156.5 486.5a45.7 45.7 0 0 0 6-23.5c1.5-12-3.2-20.3-14-25a116.6 116.6 0 0 0-42-2.5c0-3.4.3-6.7 1-10 15.3-1.7 30.6-2.2 46-1.5 10.2-.4 19 2.8 26.5 9.5a44.8 44.8 0 0 1-3 43 39.6 39.6 0 0 1-20.5 10Z"/>
  <path fill="#010101" d="M2653.5 442.5a54.4 54.4 0 0 1-12.5 15 114 114 0 0 0-67.5-15 49.9 49.9 0 0 1 22-11.5c19-1.3 37.3 1.7 55 9 1.4.4 2.4 1.2 3 2.5Z"/>
  <path fill="#2b5e91" d="M1031.5 428.5a6664 6664 0 0 1 93.5 166 4 4 0 0 0 3.5 2c-4.5 4-9.5 7.4-15 10-1.3 0-2-.7-2.5-2-26-55-52.2-110-78.5-165-1-3.6-1.3-7.2-1-11Z"/>
  <path fill="#94d405" d="M1032.5 439.5c26.3 55 52.4 110 78.5 165 .4 1.3 1.3 2 2.5 2 6.2 13.8 12.6 27.6 19 41.5-.3 1.3-1 2.3-2 3a61 61 0 0 0-10 5c-6.7 2.2-13 5.2-19 9a13 13 0 0 1-5 .5c-21.2-69.2-42.9-138.2-65-207-.3-6.5 0-12.9 1-19Z"/>
  <path fill="#2f2f2f" d="M783.5 497.5c-42.4 31-84.4 63-126 95.5-4.8 2.3-8.8 1.4-12-2.5l131-106c17.6-14.1 35.3-28 53-41.5a3576 3576 0 0 0-46 54.5Z"/>
  <path fill="#020202" d="M1508.5 534.5a889.6 889.6 0 0 0-6-34c4.1-15.9 9-31.5 14.5-47l14.5 75.5c-.3 1.3-1 2.3-2 3l-21 2.5Z"/>
  <path fill="#6a9301" d="M1031.5 458.5c22.1 68.8 43.8 137.8 65 207a187 187 0 0 1-13 8 627.1 627.1 0 0 1-11-41c0-2.7-.6-5-2-7-12.4-53-25.4-105.6-39-158v-9Z"/>
  <path fill="#fc4f56" d="M1031.5 467.5c13.6 52.4 26.6 105 39 158 0 2.7.6 5 2 7 3.2 13.7 6.8 27.4 11 41a5832 5832 0 0 0 13 51.5 6.9 6.9 0 0 1-5 3 1289 1289 0 0 1-48 11.5c-3-75.5-7-150.9-12-226v-46Z"/>
  <path fill="#a19632" d="M357.5 482.5a7 7 0 0 1 4.5 3c25.7 37.4 51.9 74.4 78.5 111 0 1.5.6 2.5 2 3 .3 9.8 0 19.5-1 29 .2-6.7 0-13.3-.5-20-31-38.5-62.2-76.8-93.5-115 2.6-4.3 6-8 10-11Z"/>
  <path fill="#f5e245" d="M347.5 493.5c31.3 38.2 62.5 76.5 93.5 115 .5 6.7.7 13.3.5 20v1a8911.5 8911.5 0 0 1-81-76.5 4.6 4.6 0 0 1-2-4.5c-1 .1-2 0-3-.5a1328.4 1328.4 0 0 0-31-30.5 217 217 0 0 1 18.5-21c1.6-.9 3.1-1.9 4.5-3Z"/>
  <path d="M2409.5 621.5c-1 3.1-1.3 6.5-1 10h37c-.2 3.7-.6 7.3-1 11h-57l4-76c7.5-18.8 15.4-37.4 23.5-56l-5.5 111Z"/>
  <path fill="#020202" d="M2346.5 630.5c-2.1 10.4-8.4 14.2-19 11.5a21 21 0 0 1-9.5-6.5 1304 1304 0 0 0-12.5-50 1882 1882 0 0 1 6.5-74c9.2 37 18.2 74 27 111 2 3.2 4.5 5.9 7.5 8Z"/>
  <path d="M1976.5 517.5c-1.3 3.7-3 7.2-5 10.5-25 .5-50 .7-75 .5v-11h80Z"/>
  <path fill="#0a0a0a" d="M2187.5 527.5a73 73 0 0 1-12 8c-1.4-.3-2.4-1-3-2.5 5-2 10-3.8 15-5.5Z" opacity=".8"/>
  <path fill="#a7a7a7" d="m776.5 484.5-131 106c-2.8 2.4-5.8 2.6-9 .5-29.3-13-59-25.4-89-37-4.6-3.4-6-8-4.5-13.5a7 7 0 0 1 3.5-4c-1.6 6.4.4 11.6 6 15.5a2779 2779 0 0 0 87 35.5c1.4-.2 2.8-.7 4-1.5 32.8-26 65.8-51.6 99-77 11.2-8.4 22.5-16.6 34-24.5Z"/>
  <path fill="#060606" d="M1393.5 534.5a78 78 0 0 1-28 13.5l-62 14.5c-.6-2.8-.6-5.8 0-9a727.2 727.2 0 0 0 90-19Zm379 1a78 78 0 0 1-28 13.5l-62 14.5c-.6-2.8-.6-5.8 0-9a727.2 727.2 0 0 0 90-19Z" opacity=".9"/>
  <path fill="#af363c" d="M1031.5 513.5c5 75.1 9 150.5 12 226a33 33 0 0 0-11 3c-1-76.3-1.3-152.6-1-229Z"/>
  <path fill="#010101" d="M2202.5 636.5a38 38 0 0 1-28.5 12 99.3 99.3 0 0 1-19.5-3.5 10887 10887 0 0 0-60-86.5v-11c6.2-.3 12.4-1 18.5-2 1.1 0 2.1.4 3 1 19.8 29.4 40 58.6 60.5 87.5 8.5 2.2 17.2 3 26 2.5Zm-607-8c0 1-.3 1.8-1 2.5a70.4 70.4 0 0 1-25 9 178 178 0 0 1-35-1c-2-1.7-3-3.9-3.5-6.5-3.3-13-6.8-26-10.5-39l-3-1c-14.3 2-28.6 3.7-43 5l3-8c21.2-3.8 42.5-6.3 64-7.5l13 45c7 2 14.2 2.8 21.5 2.5 6.5-.2 13-.5 19.5-1Z"/>
  <path fill="#aaa" d="M857.5 676.5c4.7 4.3 9.9 5 15.5 2a30 30 0 0 1 2.5-9c1 10.4-3.8 15-14 14a5886.4 5886.4 0 0 1-81-33c-2.8-1.7-5.8-3-9-4-21-9.8-42.3-18.8-64-27l-1 1a134 134 0 0 1 13.5 33l5.5 27a44 44 0 0 0-6 13 125 125 0 0 1-16.5 16c-.5.6-.6 1.3-.5 2h-1a10.3 10.3 0 0 1-4.5-6c-.7-28.7-.7-57.3 0-86a7 7 0 0 1 2.5-3.5 26 26 0 0 1 14 2c48 19.8 96 39.3 144 58.5Z"/>
  <path fill="#959595" d="M771.5 646.5c-2.3.1-4.3 1-6 2.5a2869 2869 0 0 0-46 44.5 44 44 0 0 1 6-13c-2-9-3.7-18-5.5-27a134 134 0 0 0-13.5-33l1-1c21.7 8.2 43 17.2 64 27Z"/>
  <path fill="#b6b6b6" d="M2409.5 621.5v9c12.2-.3 24.2 0 36 1h-37c-.3-3.5 0-6.9 1-10Z"/>
  <path fill="#bb6d31" d="M1070.5 625.5c1.4 2 2 4.3 2 7-1.4-2-2-4.3-2-7Z"/>
  <path fill="#2e2e2e" d="M771.5 646.5c3.2 1 6.2 2.3 9 4a5263 5263 0 0 0-64 59.5c-4.2 4-9 4.6-14 1.5-.1-.7 0-1.4.5-2a125 125 0 0 0 16.5-16 2869 2869 0 0 1 46-44.5 9.3 9.3 0 0 1 6-2.5Z"/>
  <path fill="#4c5930" d="M738.5 812.5c16.3-1.3 32.7-1.3 49 0 0 .7-.3 1-1 1a295 295 0 0 0-34-1h-14Z"/>
  <path fill="#b0363c" d="M508.5 812.5h229a10.8 10.8 0 0 1-6 2 35 35 0 0 0-8.5-1l-211.5 11-3-12Z"/>
  <path fill="#6b9202" d="M737.5 812.5h15a6371.9 6371.9 0 0 1-171 54c-2.2-4-4.2-8-6-12 1.3-2 3.3-3.1 6-3.5 50-11.9 100-24 150-36.5a11 11 0 0 0 6-2Z"/>
  <path fill="#95d401" d="M752.5 812.5a295 295 0 0 1 34 1l-143 67.5c-1.2 1-2.2 2.2-3 3.5a594.7 594.7 0 0 0-40.5 19l-3-3a809.6 809.6 0 0 1-15.5-34 6371.9 6371.9 0 0 0 171-54Z"/>
  <path fill="#2d5f8e" d="M787.5 812.5h12a15853 15853 0 0 1-149 84c-3-4.3-6.3-8.3-10-12 .8-1.3 1.8-2.5 3-3.5l143-67.5c.7 0 1-.3 1-1Z"/>
  <path fill="#408dda" d="M799.5 812.5c6.5-.3 12.9 0 19 1l-103 72.5a4.6 4.6 0 0 0-2 4.5 1051 1051 0 0 0-45 31 179.3 179.3 0 0 1-18-25 15853 15853 0 0 0 149-84Z"/>
  <path fill="#a19632" d="m832.5 812.5-108 87c-3.9-2.8-7.5-5.8-11-9-.2-1.9.5-3.4 2-4.5l103-72.5c4.6-1 9.2-1.3 14-1Z"/>
  <path fill="#f5e245" d="M832.5 812.5h29a5731 5731 0 0 1-108.5 114 218 218 0 0 1-28.5-27l108-87Z"/>
  <path fill="#fc4e56" d="M731.5 814.5c-50 12.5-100 24.6-150 36.5a8.2 8.2 0 0 0-6 3.5 3958 3958 0 0 1-52 12c-1.1-.3-2-1-2.5-2-3-13.4-6.2-26.7-9.5-40l211.5-11c3 0 5.9.3 8.5 1Z"/>
</svg>